<?xml version="1.0" encoding="UTF-8"?><svg id="_レイヤー_2" xmlns="http://www.w3.org/2000/svg" xmlns:xlink="http://www.w3.org/1999/xlink" viewBox="0 0 87 87"><defs><style>.cls-1{fill:#fff;}.cls-2{fill:#1baf92;filter:url(#drop-shadow-1);}</style><filter id="drop-shadow-1" filterUnits="userSpaceOnUse"><feOffset dx="1" dy="1"/><feGaussianBlur result="blur" stdDeviation="1"/><feFlood flood-color="#134c36" flood-opacity=".15"/><feComposite in2="blur" operator="in"/><feComposite in="SourceGraphic"/></filter></defs><g id="_当クリニックの特徴"><ellipse class="cls-2" cx="42.212524" cy="42.8330364" rx="40.0000006" ry="40.1248178"/><path class="cls-1" d="M14.1040039,46.340332c.0366211-2.9116211.5488281-5.644043,1.5371094-8.1967773.987793-2.5532227,2.3178711-4.7900391,3.9887695-6.7104492,1.6713867-1.9204102,3.5625-3.421875,5.6723633-4.5048828,2.1103516-1.0830078,4.3173828-1.6098633,6.6210938-1.5810547,2.0273438.0253906,3.8867188.5458984,5.5795898,1.5610352,1.6918945,1.015625,3.0458984,2.4301758,4.0600586,4.2460938,1.0136719,1.8154297,1.5063477,3.9248047,1.4760742,6.328125-.0356445,2.8652344-.5537109,5.5688477-1.5532227,8.1103516-.9990234,2.5415039-2.3408203,4.7841797-4.0239258,6.7270508-1.6826172,1.9433594-3.5805664,3.4619141-5.6904297,4.5566406-2.1098633,1.0942383-4.2944336,1.6274414-6.5522461,1.5991211-2.0268555-.0253906-3.8867188-.5458984-5.5786133-1.5610352-1.6928711-1.0146484-3.0454102-2.4301758-4.0600586-4.2460938-1.0141602-1.8154297-1.5063477-3.9243164-1.4765625-6.328125ZM19.4082031,40.8950195c-.4731445,1.9350586-.7226562,3.9082031-.7475586,5.918457-.0395508,3.1430664.5576172,5.6010742,1.7915039,7.3725586,1.2333984,1.7719727,2.8291016,2.6704102,4.7871094,2.6948242,1.4052734.0175781,2.7578125-.3291016,4.0571289-1.0410156,1.2988281-.7114258,2.503418-1.7070312,3.6142578-2.9882812,1.1098633-1.2802734,2.0737305-2.7695312,2.8901367-4.4702148.815918-1.699707,1.4604492-3.5229492,1.934082-5.4707031.4736328-1.9467773.7231445-3.9370117.7485352-5.9711914.0395508-3.1655273-.5405273-5.6166992-1.7397461-7.3544922-1.199707-1.7358398-2.7900391-2.6171875-4.7709961-2.6420898-1.4282227-.0180664-2.7978516.3349609-4.1083984,1.0576172-1.3110352.7236328-2.5161133,1.7246094-3.6142578,3.0053711-1.0996094,1.2807617-2.0629883,2.7651367-2.8901367,4.453125-.828125,1.6879883-1.4780273,3.5004883-1.9516602,5.4360352Z"/><path class="cls-1" d="M43.0727539,56.8969727c4.6455078-3.0146484,8.5439453-5.6821289,11.6953125-8,3.1503906-2.3178711,5.6650391-4.40625,7.5429688-6.2666016s3.2304688-3.6049805,4.0576172-5.2363281c.8266602-1.6303711,1.2504883-3.2539062,1.2705078-4.8720703.0214844-1.7099609-.3544922-3.0087891-1.1264648-3.8969727-.7724609-.8876953-1.9418945-1.3417969-3.5083008-1.3613281-2.0732422-.0263672-3.9663086.7363281-5.6791992,2.2856445-1.7133789,1.550293-2.9658203,3.6611328-3.7602539,6.331543l-4.2060547-.8154297c1.1889648-2.9667969,3.0263672-5.2714844,5.5131836-6.9165039,2.4853516-1.644043,5.3178711-2.4462891,8.496582-2.4067383,2.7646484.0351562,4.921875.6860352,6.4731445,1.9541016,1.5507812,1.2675781,2.3129883,3.0102539,2.2851562,5.2285156-.0185547,1.5029297-.4521484,3.0161133-1.3012695,4.5424805-.8486328,1.5273438-2.2226562,3.1616211-4.121582,4.90625-1.9003906,1.7441406-4.418457,3.6884766-7.5556641,5.8330078-3.1376953,2.1450195-7.0161133,4.5981445-11.6352539,7.3598633l.0146484-1.1787109,22.5415039-.6181641-1.4384766,4.4887695-25.5712891-.3212891.0131836-1.0400391Z"/></g></svg>