<?xml version="1.0" encoding="UTF-8"?><svg id="_レイヤー_2" xmlns="http://www.w3.org/2000/svg" xmlns:xlink="http://www.w3.org/1999/xlink" viewBox="0 0 80.0001322 80.3494575"><defs><style>.cls-1{fill:#fff;}.cls-2{fill:#1baf92;filter:url(#drop-shadow-1);}</style><filter id="drop-shadow-1" filterUnits="userSpaceOnUse"><feOffset dx="1" dy="1"/><feGaussianBlur result="blur" stdDeviation="1"/><feFlood flood-color="#134c36" flood-opacity=".15"/><feComposite in2="blur" operator="in"/><feComposite in="SourceGraphic"/></filter></defs><g id="_当クリニックの特徴"><ellipse class="cls-2" cx="40.0000661" cy="40.1747288" rx="40.0000003" ry="40.1746626"/><path class="cls-1" d="M14.8109696,43.6878721c.0361328-2.9155273.5488281-5.6513672,1.5371094-8.2075195.9873047-2.5561523,2.3168945-4.7954102,3.9887695-6.71875,1.6713867-1.9228516,3.5620117-3.4262695,5.6723633-4.5102539,2.1103516-1.0844727,4.3168945-1.6118164,6.6210938-1.5830078,2.0273438.0253906,3.8862305.546875,5.5795898,1.5629883,1.6918945,1.0166016,3.0454102,2.4335938,4.059082,4.2514648,1.0141602,1.8173828,1.5063477,3.9301758,1.4765625,6.3359375-.0356445,2.8691406-.5537109,5.5756836-1.5532227,8.1201172-.9985352,2.5449219-2.340332,4.7895508-4.0234375,6.7358398-1.6835938,1.9458008-3.5800781,3.4667969-5.6904297,4.5620117-2.1108398,1.0952148-4.2944336,1.6293945-6.5522461,1.6010742-2.0273438-.0253906-3.8867188-.546875-5.5791016-1.5629883-1.6928711-1.015625-3.0458984-2.4331055-4.0595703-4.2509766-1.0141602-1.8178711-1.5068359-3.9291992-1.4765625-6.3359375ZM20.1151688,38.2357236c-.4736328,1.9370117-.7226562,3.9125977-.7480469,5.9257812-.0390625,3.1464844.5576172,5.6079102,1.7915039,7.3818359,1.2333984,1.7744141,2.8291016,2.6733398,4.7875977,2.6977539,1.4052734.0175781,2.7573242-.3295898,4.0566406-1.0419922,1.2988281-.7124023,2.503418-1.7094727,3.6142578-2.9916992,1.1103516-1.2817383,2.0737305-2.7739258,2.8901367-4.4760742.8154297-1.7021484,1.4604492-3.527832,1.934082-5.4775391s.7231445-3.9423828.7485352-5.9785156c.0395508-3.1694336-.5400391-5.6245117-1.7397461-7.3632812s-2.7895508-2.6210938-4.7705078-2.6459961c-1.4287109-.0180664-2.7988281.3349609-4.1083984,1.0585938-1.3110352.7250977-2.5161133,1.7270508-3.6152344,3.0092773-1.0996094,1.2822266-2.0620117,2.7685547-2.8891602,4.4589844-.828125,1.6899414-1.4780273,3.5043945-1.9516602,5.4428711Z"/><path class="cls-1" d="M58.7631181,27.8568174l1.3823242.0175781-11.2954102,7.7719727-.543457-.7705078,11.4057617-11.1025391,4.4921875.0561523-10.140625,31.5986328-3.2480469-.0410156,7.9472656-27.5302734Z"/></g></svg>