<?xml version="1.0" encoding="UTF-8"?><svg id="_レイヤー_2" xmlns="http://www.w3.org/2000/svg" xmlns:xlink="http://www.w3.org/1999/xlink" viewBox="0 0 87 87"><defs><style>.cls-1{fill:#fff;}.cls-2{fill:#1baf92;filter:url(#drop-shadow-1);}</style><filter id="drop-shadow-1" filterUnits="userSpaceOnUse"><feOffset dx="1" dy="1"/><feGaussianBlur result="blur" stdDeviation="1"/><feFlood flood-color="#134c36" flood-opacity=".15"/><feComposite in2="blur" operator="in"/><feComposite in="SourceGraphic"/></filter></defs><g id="_当クリニックの特徴"><ellipse class="cls-2" cx="42.5377487" cy="42.841715" rx="40.0000001" ry="40.1319564"/><path class="cls-1" d="M16.3837891,46.3496094c.0371094-2.9130859.5498047-5.6455078,1.5380859-8.1992188.9873047-2.5532227,2.3173828-4.7905273,3.9892578-6.7109375,1.6708984-1.9213867,3.5615234-3.4228516,5.671875-4.5058594s4.3173828-1.6103516,6.6210938-1.581543c2.0273438.0258789,3.8867188.546875,5.5791016,1.5615234,1.6914062,1.0151367,3.0449219,2.4306641,4.0595703,4.246582,1.0146484,1.8154297,1.5058594,3.9262695,1.4755859,6.3291016-.0351562,2.8666992-.5527344,5.5703125-1.5527344,8.1118164-.9990234,2.5419922-2.3398438,4.784668-4.0234375,6.7290039-1.6826172,1.9433594-3.5800781,3.4628906-5.6894531,4.5571289-2.1113281,1.0947266-4.2958984,1.6274414-6.5527344,1.5991211-2.0273438-.0258789-3.8876953-.5458984-5.5791016-1.5610352-1.6923828-1.0146484-3.0458984-2.4311523-4.0595703-4.2460938-1.0146484-1.8164062-1.5068359-3.9262695-1.4775391-6.3295898ZM21.6884766,40.9023438c-.4736328,1.9360352-.7226562,3.909668-.7480469,5.9204102-.0390625,3.1435547.5585938,5.6015625,1.7919922,7.3730469,1.234375,1.7729492,2.8291016,2.6713867,4.7871094,2.6962891,1.4042969.0175781,2.7568359-.3300781,4.0566406-1.0415039,1.2998047-.7119141,2.5048828-1.7080078,3.6142578-2.9882812,1.1113281-1.2807617,2.0742188-2.7714844,2.890625-4.472168.8154297-1.699707,1.4599609-3.5239258,1.9335938-5.4716797.4736328-1.9467773.7236328-3.9375.7490234-5.9716797.0390625-3.1665039-.5410156-5.6181641-1.7402344-7.3554688-1.1992188-1.7368164-2.7890625-2.6186523-4.7705078-2.6435547-1.4287109-.0180664-2.7978516.3344727-4.109375,1.0581055-1.3105469.7236328-2.515625,1.7255859-3.6142578,3.0063477-1.0976562,1.2807617-2.0605469,2.7651367-2.8886719,4.4541016-.828125,1.6884766-1.4785156,3.5004883-1.9521484,5.4360352Z"/><path class="cls-1" d="M65.5537109,49.9492188c.0253906-1.9873047-.6464844-3.4863281-2.0166016-4.4980469-1.3691406-1.0107422-3.4365234-1.534668-6.2011719-1.5693359-.5068359-.0063477-1.0605469.0043945-1.6591797.03125-.6005859.0273438-1.2451172.0942383-1.9384766.2006836l-.1240234-1.1108398c4.4775391-.6137695,8.0537109-1.9443359,10.7285156-3.9912109,2.6757812-2.046875,4.03125-4.4916992,4.0664062-7.3344727.0185547-1.4331055-.3251953-2.5234375-1.0302734-3.2724609s-1.7490234-1.1318359-3.1308594-1.1489258c-2.0039062-.0253906-3.7636719.7041016-5.2802734,2.1870117-1.5166016,1.484375-2.6953125,3.6303711-3.5361328,6.4399414l-4.1386719-.8144531c1.1904297-3.0131836,2.9365234-5.3320312,5.2373047-6.956543,2.3017578-1.6230469,4.9501953-2.4165039,7.9443359-2.3789062,2.4882812.03125,4.4619141.5996094,5.9228516,1.7041016,1.4609375,1.1049805,2.1796875,2.5820312,2.1572266,4.4311523-.0205078,1.6176758-.6103516,3.1704102-1.7685547,4.6586914-1.1591797,1.487793-2.7714844,2.796875-4.8369141,3.9267578-2.0654297,1.1303711-4.4472656,1.9785156-7.1503906,2.5449219l.0039062-.2768555c.3466797-.0649414.8183594-.1225586,1.4189453-.1728516.5996094-.0498047,1.140625-.0722656,1.625-.065918,2.4179688.0302734,4.4306641.7485352,6.0380859,2.1557617,1.6064453,1.4077148,2.3964844,3.1748047,2.3701172,5.3007812-.0214844,1.7333984-.6357422,3.3847656-1.8408203,4.9526367-1.2080078,1.5683594-2.9296875,3.0087891-5.1708984,4.3208008-2.2392578,1.3125-4.9316406,2.4580078-8.0771484,3.4355469-3.1464844.9775391-6.6806641,1.7416992-10.6044922,2.2939453l-.1953125-.9038086c7.0693359-1.5527344,12.3574219-3.4916992,15.8671875-5.8164062,3.5068359-2.3251953,5.28125-5.0830078,5.3203125-8.2729492Z"/></g></svg>