<?xml version="1.0" encoding="UTF-8"?><svg id="_レイヤー_2" xmlns="http://www.w3.org/2000/svg" viewBox="0 0 180 180.1046697"><defs><style>.cls-1{fill:#1baf92;}.cls-2{fill:#fff;stroke:#999;stroke-miterlimit:10;}</style></defs><g id="_診療案内"><ellipse class="cls-2" cx="90" cy="90.0523348" rx="89.5" ry="89.5523348"/><path class="cls-1" d="M59.2430905,111.2553866c3.5842542-6.2377805,6.5825142-11.9460384,10.1145086-17.3019113,1.0510982-1.5938733,3.5742104-3.0564477,5.4670566-3.1136111,10.0762753-.3042846,20.1670626-.1896921,30.2515156-.0885726,1.3785395.0138221,3.4301299.32846,4.0141441,1.2429305,3.8684099,6.05725,7.421243,12.3162761,11.520388,19.2611644h-61.3676129Z"/><path class="cls-1" d="M117.5095243,98.0721181c-3.5318503-4.3715099-5.0953056-8.4168976-3.8065083-13.9756016,2.1485392-9.2669102-5.5733741-21.3114874-15.0518134-24.8990137-10.6914073-4.0466136-22.6192382-.0909332-28.69598,9.6177544-3.3533901,5.357649-4.6203626,11.0223911-3.8026242,17.5213805.4401386,3.4980125-1.3946749,7.2826011-2.3576316,11.6369339-8.9448871-7.8814545-7.6320422-25.9052978,1.472598-37.2636558,9.615958-11.9962338,30.412179-14.9250904,42.7854967-6.025727,14.2294932,10.2343922,18.4760414,28.9748237,9.4564628,43.3879292ZM121.9926414,82.0038163c-1.7008602-1.3311387-2.7457152-2.785652-3.7597255-2.7644444-1.0262086.0214657-2.0219064,1.5032741-3.0309632,2.3454079.9428691,1.088382,1.7219796,2.7248224,2.8860027,3.0730327.7797857.2332611,2.1058529-1.3618268,3.904686-2.6539963ZM62.1776814,77.9616773c-1.3886212,1.6913874-3.0413484,2.8964341-2.859228,3.667757.2893976,1.2256927,1.8033506,2.1619172,2.7993215,3.2205904.9119941-.9607492,2.4487923-1.8569116,2.5565891-2.9008062.1034879-1.0021246-1.2741336-2.1573706-2.4966826-3.9875411ZM89.9381962,49.5709854c-1.1693409,1.9814665-2.4431559,3.1751694-2.3169404,4.1954806.1280969,1.0355262,1.6381696,1.8999037,2.5430026,2.8392366.9333942-.9680626,2.5408254-1.8903208,2.6105178-2.9170763.0696241-1.0258788-1.3996285-2.1563269-2.83658-4.1176409Z"/><path class="cls-1" d="M58.8569337,114.5232881c20.232302,0,39.3682858-.0084405,58.5041785.030855.7660702.0015788,2.2088478.5022274,2.1958454.6922307-.2186735,3.1962024-.302142,6.4658876-1.1310772,9.5251741-.3426587,1.2646391-2.3599908,2.9412859-3.6327969,2.9560872-16.5137532.1919616-33.0311704.1741089-49.5455001.0017458-1.2684138-.0132377-3.213186-1.3288388-3.6473544-2.4877586-1.1912113-3.1797464-1.7446275-6.5987047-2.7432952-10.7183343Z"/><path class="cls-1" d="M58.5576706,103.8211062c-11.3680767-15.2290979-8.4235026-39.7231781,6.2155311-51.7031798,16.1767688-13.2384204,39.5674026-11.7665934,53.2292672,2.6175775,14.9572845,15.7480584,12.0184455,40.896865,2.1371754,48.6441969.6697358-1.8022758,1.2111017-3.6652066,2.0286807-5.3976278,10.2494253-21.7181894-1.1128254-46.4143417-24.2646601-51.3246875-14.0893119-2.988244-26.8019201.5879612-35.9437164,12.463348-9.5666492,12.4272859-11.1809419,25.8104859-3.4211025,39.8958525.7409758,1.3449988.9460248,2.9855912,1.399875,4.4889488-.4603514.1051956-.920699.2103835-1.3810504.3155715Z"/><path class="cls-1" d="M104.851649,132.6113235c5.422451-.3340086,10.844902-.6680173,16.2659571-1.0019348.4124422,5.0982997.3182546,5.2136437-5.7747591,5.2587611-2.319292.0171847-4.6964575.2780065-6.9383119-.1471782-1.4880659-.282242-2.7828485-1.5847573-4.1641493-2.430542.2037518-.559702.4075037-1.1194041.6112631-1.6791061Z"/><path class="cls-1" d="M75.5963698,132.6578223c-3.2174493,6.762058-8.7603429,3.673427-12.8391499,4.0584129-4.0910622.3861396-4.2377523-.2777181-4.0392765-5.1632585,5.250363.3436788,10.5438903.6901965,16.8784264,1.1048457Z"/><path class="cls-1" d="M121.9926414,82.0038163c-1.7988331,1.2921695-3.1249004,2.8872573-3.904686,2.6539963-1.1640231-.3482103-1.9431336-1.9846507-2.8860027-3.0730327,1.0090567-.8421338,2.0047545-2.3239423,3.0309632-2.3454079,1.0140104-.0212076,2.0588653,1.4333057,3.7597255,2.7644444Z"/><path class="cls-1" d="M62.1776814,77.9616773c1.222549,1.8301706,2.6001705,2.9854166,2.4966826,3.9875411-.1077968,1.0438946-1.644595,1.940057-2.5565891,2.9008062-.9959709-1.0586732-2.5099239-1.9948977-2.7993215-3.2205904-.1821204-.7713228,1.4706067-1.9763695,2.859228-3.667757Z"/><path class="cls-1" d="M89.9381962,49.5709854c1.4369515,1.961314,2.9062041,3.0917621,2.83658,4.1176409-.0696924,1.0267555-1.6771237,1.9490137-2.6105178,2.9170763-.9048329-.9393329-2.4149057-1.8037104-2.5430026-2.8392366-.1262155-1.0203112,1.1475995-2.2140141,2.3169404-4.1954806Z"/></g></svg>