<?xml version="1.0" encoding="UTF-8"?><svg id="_レイヤー_2" xmlns="http://www.w3.org/2000/svg" viewBox="0 0 180.0055 180.1157285"><defs><style>.cls-1{fill:#1baf92;}.cls-2{fill:#fff;stroke:#999;stroke-miterlimit:10;}</style></defs><g id="_診療案内"><ellipse class="cls-2" cx="90.00275" cy="90.0578642" rx="89.50275" ry="89.5578642"/><path class="cls-1" d="M46.0022209,111.6187677c5.6342577,2.8664012,8.2426671-.7398227,10.9461507-4.1035711.4105848-.5108589,1.1649161-1.3072716,1.0170836-1.6212837-2.3442612-4.97943,1.4127312-4.9958946,4.4848971-6.6365731,3.2176695-1.7183711,5.5343473-5.1348078,8.2271798-7.8267326,10.304376-10.3008977,20.7578894-20.4599521,30.8024376-31.0087756,2.8590161-3.0025399,5.9544187-4.9458821,9.786139-5.281365,3.1252467-.2736286,6.3398135.680796,9.5227837.7573653,1.2493734.0300561,2.7682016-.5520015,3.7362327-1.365395,3.1414812-2.6396008,6.0847498-5.515354,9.478154-7.988054-2.2692032,2.5115654-4.5130837,5.0466587-6.8152111,7.5276404-2.0326955,2.1906228-2.5789938,3.8528138-1.9806844,7.502636.8135455,4.9628971,1.1463071,11.1813643-3.5879905,15.8024514-12.9137299,12.6049283-25.6489031,25.3948008-38.3170748,38.2473361-1.4347046,1.4555747-1.8973498,3.8340871-2.9973962,5.6728345-.4906307.8201115-1.4535033,1.9521628-2.1860887,1.940488-7.2721666-.1160115-10.3614547,3.1306171-9.5754471,10.3335764-3.0844936-.2813637-18.1181376-14.3418971-22.5411653-21.9525779Z"/></g></svg>