<?xml version="1.0" encoding="UTF-8"?><svg id="_レイヤー_2" xmlns="http://www.w3.org/2000/svg" viewBox="0 0 180 180.1046697"><defs><style>.cls-1{fill:#1baf92;}.cls-2{fill:#fff;stroke:#999;stroke-miterlimit:10;}</style></defs><g id="_診療案内"><ellipse class="cls-2" cx="90" cy="90.0523348" rx="89.5" ry="89.5523348"/><path class="cls-1" d="M83.7760868,61.2338645c3.3001668-5.1292306,1.7318034-9.5039701,1.895486-13.5462342.1544809-3.8151286,1.7941373-5.361095,5.2045056-4.3346925,1.3181019.3967017,2.8705803,2.297816,3.0613374,3.6861674.3997736,2.9096224-.1391041,5.9360006-.0758143,8.9098151.0289102,1.3587981.5710574,2.7066585.8934236,4.1162631.9948633-.3276251,1.2424545-.3358227,1.2852243-.4336594,3.995968-9.1419035,5.969271-9.7426127,14.5427179-4.0817419,15.3340874,10.1248015,24.520618,23.7204948,24.6918336,42.762569.0772556,8.5912568,1.2182629,17.1683575,1.7056317,25.7615878.7184378,12.6675678-2.726917,15.1892099-14.7432761,11.3275559-6.0734265-1.9517841-10.2492809-5.4822835-12.7248289-11.5432223-1.3161751-3.222412-3.6860428-6.2444675-6.227035-8.6819774-3.897593-3.7388487-5.2956967-7.7595067-5.1748672-13.2338962.1703432-7.7174862-.3989088-15.5657932-1.8082624-23.1428415-.5065842-2.7235396-4.362955-4.8232913-6.6905536-7.2077291-2.2815062,2.4260105-6.0723266,4.5850054-6.5571617,7.3288569-1.3701873,7.7541934-1.7439106,15.7456329-1.8003199,23.6486591-.0343872,4.8188129-1.2850043,8.5025249-4.577221,12.0505126-2.9548985,3.18446-5.4782078,6.9420266-7.4588616,10.821465-3.4962492,6.8480117-14.3932855,13.0366137-21.9430575,11.3296053-1.6729779-.3782607-3.9912875-2.8985518-4.063817-4.5198189-.3611154-8.0721939-.420176-16.1955851.0892794-24.2582681.4888785-7.7370087,1.3263479-15.5182772,2.85699-23.1092311,3.1627392-15.6850841,14.6837565-24.6323314,27.5463013-32.0810524,3.8480718-2.2284282,7.315039-.0894682,8.6203358,4.3695097.2636128.9004927.6283088,1.7713562,1.4520097,4.0617981ZM63.7987501,102.2750261c.1307975-.3847885.2616025-.769577.3924076-1.1543655,4.3631977-.6377315,10.2626929.1998556,12.6731229-2.3131334,2.597834-2.7083967,1.9282802-8.5544888,2.6841776-13.0317103-.6773825-.152962-1.3547574-.3059241-2.0321399-.4588861l-2.2998036,5.3467567c-.3296639-8.4384314-5.1083382-12.591952-13.2568792-13.9893019,2.4768907-1.1321484,4.5353919-1.5329223,6.5522081-2.0858916,9.4297296-2.5853789,12.6871569-6.9877209,11.1478478-14.9795209-.8408983-4.36576-2.9152617-5.6758922-6.5445235-3.2345225-9.3874908,6.3148989-18.4416271,13.1896213-22.5512787,24.346112-5.9754726,16.2216506-4.9395577,33.2299414-4.8864521,50.0766322.0038195,1.212417,2.1718812,3.5036597,3.1872115,3.4240059,3.0649976-.2404188,6.0577311-1.4031489,9.6862874-2.3678603-8.4408667-8.7339414-9.8497653-12.7641558-5.9800204-17.2798227.6717651,2.8433012.7495024,5.6111991,1.9869199,7.6869575,1.1171797,1.8740659,3.3181835,3.6580411,5.3872671,4.2312996,1.6591676.4597059,5.2378991-.5390561,5.5540145-1.605813,1.8527542-6.2523539,6.6486866-10.1075409,10.5794531-14.7207523,1.0277637-1.2061701,1.0667026-3.2558706,1.5597685-4.9181639-1.5129327-.3881131-3.0138036-.8342549-4.5413317-1.1521567-3.0917647-.6434243-6.1979959-1.2173052-9.2982569-1.8198627ZM120.9997088,131.3735652c1.9592538.8791978,3.3597471,1.6694055,4.8591008,2.1524899,6.5067225,2.0963967,8.1931921,1.0147626,7.9171231-5.8885681-.4883095-12.210898-.8891224-24.4551559-2.164098-36.5973986-1.7132632-16.3162423-12.7020482-26.3524712-25.5373896-34.6552733-1.2430842-.8041134-4.6594378-.4373863-5.4284665.6008762-3.1626026,4.2697982-1.1642962,12.1784794,3.6197869,14.5883299,4.0068236,2.0183369,8.3623443,3.3436385,12.5634599,4.9758131-8.2105943,1.1219468-11.9652902,6.1551283-12.6604543,13.9418466-.8410652-1.7647943-1.6821304-3.5295961-2.5231955-5.2943904-.4081181.1257352-.8162439.2514705-1.224362.3772057,0,2.5679664-.3290798,5.1871226.0605437,7.694472,1.2635056,8.131012,3.360756,9.3062815,11.4269057,7.0498712,1.0314202-.2885269,2.2130503-.0394929,3.3250943-.0394929.0896208.6842759.1792491,1.3685518.2688699,2.0528202-3.017589.584295-6.0451233,1.1224858-9.0488223,1.771155-1.6528257.3569393-3.2655671.8997298-4.8963783,1.3587222.5833012,1.6680013.8809447,3.5250798,1.8255812,4.9539223,1.069168,1.6172442,2.8509023,2.743935,4.0833433,4.2767055,1.6250231,2.0210087,3.5013166,4.0454028,4.3962347,6.4005795,1.3614406,3.5829643,2.7709916,6.2621152,7.3015132,5.6661613,4.528701-.595711,5.8857418-3.6802355,6.5709985-7.5016072.2586364-1.4422168.5512125-2.8783385.9905469-5.1598047,3.7464424,5.6393292,2.2415509,9.7956507-5.7259356,17.2755645ZM105.2722277,80.8200196c-.5651555.3264182-1.1303034.652844-1.6954589.9792622,2.0806067-1.7998848,4.1612134-3.5997771,6.7315862-5.8233512-1.5447179-.6524341-2.9784226-1.2608438-4.4143196-1.8639858-8.8386148-3.7125934-13.0143175-10.0102849-13.0223814-19.5647008-.0020861-2.4765778.1709728-5.0121446-.3160699-7.4023625-.213955-1.0499745-1.8809741-2.4990569-2.886344-2.4975615-1.017242.0015105-2.6414837,1.4152405-2.9170748,2.4886808-.5209141,2.0289711-.3220704,4.2572892-.3242324,6.4028642-.0113031,11.2248462-3.6022708,16.6267928-13.8750986,20.8977979-1.2152361.5052484-2.3392355,1.2302317-4.7564397,2.5216801,3.0375174.7313441,4.556845,1.0971565,6.0879765,1.4584755.4604462,1.5141208.9208849,3.0282416,1.3813311,4.54237-.4784781-.8258979-.9569486-1.6517882-1.4354267-2.4776785,5.5637852-3.7905166,11.1275705-7.5810257,15.4697854-10.5392989,5.0513068,3.440181,10.5117406,7.1589986,15.9721669,10.8778086Z"/><path class="cls-1" d="M63.7987501,102.2750261c3.100261.6025575,6.2064922,1.1764384,9.2982569,1.8198627,1.5275281.3179018,3.028399.7640436,4.5413241,1.1521567-.4930583,1.6622933-.5319972,3.7119938-1.5597609,4.9181639-3.9307665,4.6132114-8.7266989,8.4683983-10.5794531,14.7207523-.3161154,1.0667569-3.8948469,2.0655189-5.5540145,1.605813-2.0690836-.5732585-4.2700874-2.3572338-5.3872671-4.2312996-1.2374175-2.0757584-1.3151548-4.8436564-1.9869199-7.6869575-3.8697449,4.5156669-2.4608464,8.5458813,5.9800204,17.2798227-3.6285563.9647114-6.6212898,2.1274415-9.6862874,2.3678603-1.0153303.0796538-3.183392-2.2115889-3.1872115-3.4240059-.0531057-16.8466909-1.0890205-33.8549817,4.8864521-50.0766322,4.1096515-11.1564907,13.1637878-18.0312131,22.5512787-24.346112,3.6292617-2.4413697,5.7036252-1.1312375,6.5445235,3.2345225,1.5393091,7.9918-1.7181182,12.394142-11.1478478,14.9795209-2.0168162.5529693-4.0753174.9537432-6.5522081,2.0858916,8.148541,1.3973499,12.9272153,5.5508705,13.2568792,13.9893019l2.2998036-5.3467567c.6773825.152962,1.3547574.3059241,2.0321399.4588861-.7558974,4.4772215-.0863436,10.3233136-2.6841776,13.0317103-2.4104299,2.5129891-8.3099251,1.6754019-12.6731229,2.3131334-.1308051.3847885-.2616101.769577-.3924076,1.1543655Z"/><path class="cls-1" d="M120.9997088,131.3735652c7.9674864-7.4799138,9.4723779-11.6362353,5.7259356-17.2755645-.4393344,2.2814662-.7319105,3.7175879-.9905469,5.1598047-.6852567,3.8213717-2.0422975,6.9058962-6.5709985,7.5016072-4.5305217.5959538-5.9400726-2.083197-7.3015132-5.6661613-.894918-2.3551767-2.7712116-4.3795708-4.3962347-6.4005795-1.2324411-1.5327705-3.0141753-2.6594613-4.0833433-4.2767055-.9446366-1.4288425-1.2422801-3.285921-1.8255812-4.9539223,1.6308112-.4589924,3.2435526-1.001783,4.8963783-1.3587222,3.0036991-.6486693,6.0312333-1.1868601,9.0488223-1.771155-.0896208-.6842683-.1792491-1.3685442-.2688699-2.0528202-1.112044,0-2.2936741-.2490339-3.3250943.0394929-8.0661497,2.2564103-10.1634,1.0811408-11.4269057-7.0498712-.3896235-2.5073494-.0605437-5.1265056-.0605437-7.694472.4081181-.1257352.8162439-.2514705,1.224362-.3772057.8410652,1.7647943,1.6821304,3.5295961,2.5231955,5.2943904.695164-7.7867184,4.44986-12.8198998,12.6604543-13.9418466-4.2011157-1.6321745-8.5566364-2.9574762-12.5634599-4.9758131-4.7840831-2.4098505-6.7823895-10.3185316-3.6197869-14.5883299.7690287-1.0382625,4.1853823-1.4049896,5.4284665-.6008762,12.8353414,8.3028021,23.8241264,18.339031,25.5373896,34.6552733,1.2749756,12.1422427,1.6757885,24.3865006,2.164098,36.5973986.276069,6.9033307-1.4104006,7.9849648-7.9171231,5.8885681-1.4993538-.4830844-2.899847-1.2732921-4.8591008-2.1524899Z"/><path class="cls-1" d="M105.2722277,80.8200196c-5.4604263-3.71881-10.9208601-7.4376276-15.9721669-10.8778086-4.3422149,2.9582732-9.9060001,6.7487822-15.4697854,10.5392989.4784781.8258903.9569486,1.6517806,1.4354267,2.4776785-.4604462-1.5141284-.9208849-3.0282492-1.3872254-4.5401233-1.5252371-.3635657-3.0445648-.7293782-6.0820821-1.4607222,2.4172042-1.2914484,3.5412037-2.0164317,4.7564397-2.5216801,10.2728278-4.2710051,13.8637955-9.6729517,13.8750986-20.8977979.002162-2.145575-.1966817-4.3738932.3242324-6.4028642.2755911-1.0734403,1.8998328-2.4871703,2.9170748-2.4886808,1.0053699-.0014953,2.672389,1.447587,2.886344,2.4975615.4870427,2.3902179.3139837,4.9257847.3160699,7.4023625.0080639,9.554416,4.1837665,15.8521074,13.0223814,19.5647008,1.435897.603142,2.8696017,1.2115517,4.4143196,1.8639858-2.5703727,2.2235741-4.6509795,4.0234665-6.7315862,5.8233512.5651555-.3264182,1.1303034-.652844,1.6954589-.9792622Z"/></g></svg>