<?xml version="1.0" encoding="UTF-8"?><svg id="_レイヤー_2" xmlns="http://www.w3.org/2000/svg" viewBox="0 0 15 19.4055091"><defs><style>.cls-1{fill:#fff;stroke:#626365;stroke-miterlimit:100;stroke-width:.25px;}</style></defs><g id="sub-nav"><path class="cls-1" d="M3.9735513,6.3478995c.2738439-.2536645.751286-.2518528,1.0837888-.3847026.1573806-.0628806,1.7379393-1.1367813,1.639092-1.2950041-.4968871-.7952614-.9907664-1.5923919-1.4840383-2.3898942-.2466383-.3987549-.4930134-.7976723-.7396651-1.196419-.1129832-.1826531-.3665403-.833069-.5781905-.923274-.264432-.1461763-1.1296041.2248105-1.4302957.3417523-.1199389.0466453-.2380335.0985743-.3505211.1610554-.3238137.179862-.5927721.441971-.8575691.7009485C.1151763,2.4783094.0625401,4.4419849.1560433,5.9242939c.1235245,1.9582377.9544187,3.5363026,1.8100893,5.2700546.5606159,1.1359148,1.2504405,2.2076864,2.0474995,3.1923801,1.4796752,1.828003,3.4428688,3.5876373,5.6537941,4.4695518,1.8420361.7347685,3.3198801.5054359,4.895426-.6131195.5351568-.3799334.2682033-.6726024.038382-1.2438519-.4794635-1.1917666-1.0899151-2.356708-1.8748297-3.3773063-.4309637-.5630288-.7876018-.2583296-1.3787704-.1163654-.3651298.0876821-.7357097.2324848-.9776931.5193581-.3926973.4655547-.2631576,1.0936636-.9813487.9715487-.590501-.1004036-1.1638667-.3867711-1.6535382-.7224855-.7384673-.5062852-1.3517198-1.1770871-1.8788425-1.8951464-.8164665-1.1122738-1.4296166-2.1255769-1.928208-3.4052565-.0546004-.1401366-.1096098-.2817969-.1309118-.4306598-.0196687-.1374493-.0100373-.2772006-.0003671-.4157105.0278969-.3995781-.0941482-1.4162858.1412711-1.7402375.0088635-.0121968.0194488-.0240052.0355555-.0391483Z"/></g></svg>