<?xml version="1.0" encoding="UTF-8"?><svg id="_レイヤー_2" xmlns="http://www.w3.org/2000/svg" viewBox="0 0 180 180.1046697"><defs><style>.cls-1{fill:#1baf92;}.cls-2{fill:#fff;stroke:#999;stroke-miterlimit:10;}</style></defs><g id="_診療案内"><ellipse class="cls-2" cx="90" cy="90.0523348" rx="89.5" ry="89.5523348"/><path class="cls-1" d="M82.5960027,94.1008957c13.059696-.0003643,26.1203859.0890963,39.1784357-.0576416,3.6751795-.041307,5.4101537.8739375,5.3777615,4.973194-.0311632,3.9427573-1.0846433,5.59368-5.3276182,5.5703167-26.2839016-.144734-52.5691232-.1132945-78.8535294-.0262856-3.7885406.0125318-5.9364386-.9666241-5.9300588-5.2366649.0063002-4.213477,2.0271254-5.3169411,5.8805944-5.2762185,13.2235191.1397623,26.4494201.0536642,39.6744147.0532999Z"/><path class="cls-1" d="M138.8353821,84.9512886c-2.45103-9.4451095-9.0959535-13.2068202-17.0395057-15.6704031-6.8563675-2.1263939-13.0048418-5.2829512-14.4591651-13.339846-.304486-1.6868709-.2793992-3.4333001.0838099-5.4265619,2.9299935,8.4273373,9.9227266,11.0916032,17.2966097,13.562693,11.3409027,3.8004826,14.6166652,8.6980153,14.1182512,20.8741179Z"/><path class="cls-1" d="M142.9022257,98.9107591c.2770703,3.6467691-.8123522,5.5448888-4.6134741,5.6630033-4.0075971.1245359-4.5820075-1.9292708-4.5480981-5.2199736.0324376-3.1491491.2372439-5.4637321,4.4003384-5.3196433,3.6709617.1270711,5.1356778,1.6679404,4.7612338,4.8766136Z"/></g></svg>