<?xml version="1.0" encoding="UTF-8"?><svg id="_レイヤー_2" xmlns="http://www.w3.org/2000/svg" viewBox="0 0 180 180.1046697"><defs><style>.cls-1{fill:#1baf92;}.cls-2{fill:#fff;stroke:#999;stroke-miterlimit:10;}</style></defs><g id="_診療案内"><ellipse class="cls-2" cx="90" cy="90.0523348" rx="89.5" ry="89.5523348"/><path class="cls-1" d="M79.3216174,90.1588151c2.3295324-3.9180273,4.1405936-7.0484657,6.0354267-10.1272817,1.910263-3.1039099,3.4318888-6.064027-1.971808-7.5410228,4.3232715-7.4796543,8.4319888-14.5880919,12.9301853-22.3703646,4.4931898,7.7325555,8.6202196,14.8349815,13.0036783,22.3786913-5.3218972,1.7844076-3.983981,4.6825641-1.535326,8.0761394,1.818594,2.5203665,3.1175486,5.4161169,4.9980214,8.7687798-6.0110377.3307295-5.007777,3.0845695-2.8912437,6.4583338,2.2612889,3.6044901,4.2640933,7.3713239,6.9579195,12.0773728-5.0595361,0-9.2669849.1260464-13.4632064-.0371019-3.8371013-.1491972-5.417435,1.4481522-5.2537296,5.2970688.1829359,4.300994.1602462,8.6222013-.0459862,12.9214875-.0637981,1.3299012-1.0200257,2.6169469-1.5676423,3.9236063-.6139711-.1542068-1.2279422-.3083985-1.8419133-.4626053,0-4.8849777.0631609-9.7709725-.0155968-14.654675-.1041555-6.458144-.667915-6.9483861-7.2306126-7.0005474-3.1448202-.0249876-6.2896024-.0727617-9.4336792-.1426998-.3000861-.0066796-.5950289-.2452083-1.5246374-.6544455,2.8549827-5.2415601,5.691835-10.4498363,8.8453639-16.2395078-2.2867778-.2560247-3.6376508-.4072712-5.9952134-.6712279Z"/><path class="cls-1" d="M113.5044504,94.3516153c2.0319421-.5504416,3.4079626-.9231992,5.5359962-1.4996684-2.645147-4.930004-5.0903807-9.4874098-7.5356069-14.044808.5646016-.0119169,1.1292031-.0238339,1.6938123-.0357508.3496681-1.7982904,1.3351397-3.7660976.9111745-5.3581185-.7827743-2.9393497-4.0092651-6.1588009-3.3267168-8.3668674,1.5072048-4.8758085,4.8094947-9.196067,8.0288471-14.8919779,4.6754581,8.03495,8.6796709,14.9163203,12.6529026,21.7444591-4.1127075,3.2827173-4.1678727,3.3130562-1.7347766,7.7422826,1.7274333,3.1446628,3.6289345,6.1935954,5.6740383,9.6603877-1.8101053.4867049-3.1559033.8485703-5.4491292,1.4651775,2.9253351,5.5860814,5.6727335,10.8324083,8.9100191,17.0141778-5.9117373,0-10.9407399.0961402-15.9595772-.0868116-.9259293-.0337622-2.1157444-1.0044546-2.6613431-1.8717353-2.2702252-3.6086876-4.3406585-7.3432166-6.7396406-11.4707469Z"/><path class="cls-1" d="M117.1475783,129.6690054c0-5.6750335-.0451517-10.9906761.0695103-16.3028726.0115307-.5340539.9144138-1.2480082,1.5512338-1.490651.3516252-.1339784,1.4788484.5686282,1.4613855.8434847-.3530514,5.5524103-.8206131,11.0975567-1.2866273,16.6423386-.0034061.0405176-.3032191.0560932-1.7955023.3077002Z"/><path class="cls-1" d="M70.5129618,66.1609699c.6434523,0,.6445181-1,0-1-.6434523,0-.6445181,1,0,1h0Z"/><path class="cls-1" d="M66.0098171,68.7893404c.6434523,0,.6445181-1,0-1-.6434523,0-.6445181,1,0,1h0Z"/><path class="cls-1" d="M60.7561484,70.2912663c.6434523,0,.6445181-1,0-1-.6434523,0-.6445181,1,0,1h0Z"/><path class="cls-1" d="M55.5024796,71.4177108c.6434523,0,.6445181-1,0-1-.6434523,0-.6445181,1,0,1h0Z"/><path class="cls-1" d="M50.9993349,72.5441552c.6434523,0,.6445181-1,0-1-.6434523,0-.6445181,1,0,1h0Z"/><path class="cls-1" d="M74.6408444,64.2835625c.6434523,0,.6445181-1,0-1-.6434523,0-.6445181,1,0,1h0Z"/><path class="cls-1" d="M46.1209282,73.2951182c.6434523,0,.6445181-1,0-1-.6434523,0-.6445181,1,0,1h0Z"/><path class="cls-1" d="M41.6177836,72.9196367c.6434523,0,.6445181-1,0-1-.6434523,0-.6445181,1,0,1h0Z"/><path class="cls-1" d="M73.1397962,75.1725257c.6434523,0,.6445181-1,0-1-.6434523,0-.6445181,1,0,1h0Z"/><path class="cls-1" d="M68.6366515,77.8008961c.6434523,0,.6445181-1,0-1-.6434523,0-.6445181,1,0,1h0Z"/><path class="cls-1" d="M63.3829827,79.302822c.6434523,0,.6445181-1,0-1-.6434523,0-.6445181,1,0,1h0Z"/><path class="cls-1" d="M58.129314,80.4292665c.6434523,0,.6445181-1,0-1-.6434523,0-.6445181,1,0,1h0Z"/><path class="cls-1" d="M53.6261693,81.5557109c.6434523,0,.6445181-1,0-1-.6434523,0-.6445181,1,0,1h0Z"/><path class="cls-1" d="M77.2676788,73.2951182c.6434523,0,.6445181-1,0-1-.6434523,0-.6445181,1,0,1h0Z"/><path class="cls-1" d="M48.7477626,82.3066739c.6434523,0,.6445181-1,0-1-.6434523,0-.6445181,1,0,1h0Z"/><path class="cls-1" d="M44.244618,81.9311924c.6434523,0,.6445181-1,0-1-.6434523,0-.6445181,1,0,1h0Z"/><path class="cls-1" d="M73.1397962,84.1840814c.6434523,0,.6445181-1,0-1-.6434523,0-.6445181,1,0,1h0Z"/><path class="cls-1" d="M68.6366515,86.8124518c.6434523,0,.6445181-1,0-1-.6434523,0-.6445181,1,0,1h0Z"/><path class="cls-1" d="M63.3829827,88.3143777c.6434523,0,.6445181-1,0-1-.6434523,0-.6445181,1,0,1h0Z"/><path class="cls-1" d="M58.129314,89.4408222c.6434523,0,.6445181-1,0-1-.6434523,0-.6445181,1,0,1h0Z"/><path class="cls-1" d="M53.6261693,90.5672667c.6434523,0,.6445181-1,0-1-.6434523,0-.6445181,1,0,1h0Z"/><path class="cls-1" d="M77.2676788,82.3066739c.6434523,0,.6445181-1,0-1-.6434523,0-.6445181,1,0,1h0Z"/><path class="cls-1" d="M48.7477626,91.3182296c.6434523,0,.6445181-1,0-1-.6434523,0-.6445181,1,0,1h0Z"/><path class="cls-1" d="M44.244618,90.9427481c.6434523,0,.6445181-1,0-1-.6434523,0-.6445181,1,0,1h0Z"/><path class="cls-1" d="M75.0161064,91.3182296c.6434523,0,.6445181-1,0-1-.6434523,0-.6445181,1,0,1h0Z"/><path class="cls-1" d="M70.5129618,93.9466c.6434523,0,.6445181-1,0-1-.6434523,0-.6445181,1,0,1h0Z"/><path class="cls-1" d="M65.259293,95.448526c.6434523,0,.6445181-1,0-1-.6434523,0-.6445181,1,0,1h0Z"/><path class="cls-1" d="M60.0056243,96.5749705c.6434523,0,.6445181-1,0-1-.6434523,0-.6445181,1,0,1h0Z"/><path class="cls-1" d="M55.5024796,97.7014149c.6434523,0,.6445181-1,0-1-.6434523,0-.6445181,1,0,1h0Z"/><path class="cls-1" d="M79.143989,89.4408222c.6434523,0,.6445181-1,0-1-.6434523,0-.6445181,1,0,1h0Z"/><path class="cls-1" d="M50.6240729,98.4523779c.6434523,0,.6445181-1,0-1-.6434523,0-.6445181,1,0,1h0Z"/><path class="cls-1" d="M46.1209282,98.0768964c.6434523,0,.6445181-1,0-1-.6434523,0-.6445181,1,0,1h0Z"/></g></svg>