<?xml version="1.0" encoding="UTF-8"?><svg id="_レイヤー_2" xmlns="http://www.w3.org/2000/svg" viewBox="0 0 180 180.1046697"><defs><style>.cls-1{fill:#1baf92;}.cls-2{fill:#fff;stroke:#999;stroke-miterlimit:10;}</style></defs><g id="_診療案内"><ellipse class="cls-2" cx="90" cy="90.0523348" rx="89.5" ry="89.5523348"/><path class="cls-1" d="M113.1283648,102.4686465h9.4621721c-1.8309668,7.252162-3.0658274,14.5042254-5.5286151,21.3115133-3.213094,8.8811635-11.8039104,13.7340944-19.8700274,12.3003412-9.0067707-1.6009397-16.3917125-9.8096684-16.6473068-19.09679-.2779578-10.099182-.2076889-20.2105617-.1339684-30.3154821.027484-3.767388-.785619-6.171196-5.1760795-6.8475626-5.4298836-.8365015-9.4998593-4.5569276-11.6001055-9.3020519-2.6461483-5.9784603-4.3789981-12.4110398-5.9975423-18.7770893-.9834651-3.8681431,1.3117749-6.3992007,5.1637068-7.0465909,3.2418069-.5448551,6.5475864-.7805071,9.8349016-.9189866.6228239-.0262363,1.2918237,1.0446572,1.9395145,1.6093271-.7177928.7032101-1.4152021,1.9783882-2.1571107,2.004856-2.4521218.0874871-4.9381529-.5544418-7.3779475-.397916-3.2754811.2101444-5.0228428,1.8709155-4.5475433,5.594947.9203612,7.2111321,2.8067283,14.0194522,7.8158025,19.4822957,3.2009943,3.4909679,6.8316888,6.0766423,12.2248032,4.5232869,2.0406963-.5877789,5.007466,1.2325238,6.6775418.3317542,3.7864725-2.0422539,7.9686296-4.4665713,10.2520545-7.8945084,2.7421641-4.1166305,4.0019902-9.3508051,5.3144781-14.2588311,1.5930174-5.9570932-.5869271-8.2216932-6.857997-7.9182284-.6600863.0319405-1.3207187.2035256-1.9749562.1739988-1.3915338-.0627917-2.7974279-.1325931-4.1455093-.4329154-.1738251-.0387187-.1153144-2.1356046-.0366023-2.1444778,1.3778639-.1554175,2.775641-.138749,4.1691623-.1471364.3301645-.0019887.6607462.038954.9908804.0635507,11.6213235.8657664,13.4473517,2.9896514,10.2733028,14.1158695-1.4711487,5.1569346-3.860542,10.3681938-7.0820109,14.6043733-2.4013944,3.1578094-6.5416693,5.6460001-10.4001479,6.8441545-3.4134245,1.0599557-4.7733475,2.4057133-4.7190092,5.6387361.1807966,10.7563903.0423904,21.5336088.6971969,32.2618615.5671656,9.2921844,9.032601,16.7008228,17.1606348,15.9265702,8.5523479-.8146639,16.635943-11.1629329,15.3715729-20.1583169-.5127969-3.6483247-1.9612863-7.1649861-3.0952458-11.1305522Z"/></g></svg>