<?xml version="1.0" encoding="UTF-8"?><svg id="_レイヤー_2" xmlns="http://www.w3.org/2000/svg" viewBox="0 0 180 180.1046697"><defs><style>.cls-1{fill:#1baf92;}.cls-2{fill:#fff;stroke:#999;stroke-miterlimit:10;}</style></defs><g id="_診療案内"><ellipse class="cls-2" cx="90" cy="90.0523348" rx="89.5" ry="89.5523348"/><path class="cls-1" d="M70.6259295,132.4198843c-1.0386266-3.1608456-1.8776357-5.5461786-2.6041144-7.9653193-1.0380121-3.4565074-3.4216098-4.2466998-6.8124735-4.2501155-11.4465236-.0115374-11.4464249-.1209608-11.4464022-11.5740145.0000228-11.1051091.2383628-22.217672-.1083581-33.3119345-.1549777-4.9590374,1.6082349-6.49013,6.2783486-6.022386,3.1157735.3120647,6.3014669.2154083,9.4298862-.0299821,1.2760449-.1000872,2.483376-1.0771632,3.7219765-1.6552339-.8315142-1.2332525-1.3893187-2.9039025-2.5410446-3.6254624-5.5313915-3.4654717-6.8878706-5.2228422-7.0157626-10.4061459.6666406.2019581,1.6620498.2501611,1.7588848.5703892,1.7964354,5.940994,6.5344019,7.3748914,11.6510074,6.5633092,2.3691691-.3757938,5.4294284-2.8536464,6.2473334-5.0860781,1.3242386-3.6144601,3.2212641-4.371824,6.6017123-4.3232036,10.1026183.1453109,20.2141046.2295759,30.3094707-.0781243,2.4511963-.0747086,4.8167469-1.8658034,7.2916267-2.645354,1.6467792-.5187213,3.5958445-1.2069061,5.069011-.7409914.9465328.2993545,1.7964961,2.5547549,1.8022614,3.9370944.1057637,25.3589875.0650725,50.7185519.0954316,76.0779492.0031103,2.6044834-.3370146,4.6055442-3.6699291,4.5590757-3.3359337-.0464989-3.6188148-2.1579546-3.6176466-4.6887351.0100894-22.0444588.0091032-44.0889328-.0058867-66.133384-.0051433-7.5630957-.1710941-7.7217733-7.8471478-7.7370149-8.7794645-.0174314-17.5592172.036859-26.3383782-.0174314-3.3611343-.0207863-5.8408312.6078403-7.483605,4.2432651-1.0408265,2.303311-3.9202892,3.7432504-5.8647725,5.6812652-1.1484867,1.1446571-2.0816682,2.5055728-3.1116619,3.76924,1.5340668.6075443,3.0382827,1.6255478,4.6082236,1.7398898,3.6253843.2640477,7.3241629-.2219513,10.9054651.2552428,1.3317412.1774487,3.4419629,2.1770217,3.4616334,3.3742577.2396866,14.5818526.239899,29.1703998.0018358,43.7523131-.0198753,1.2171835-2.0175515,2.853783-3.4505578,3.4676577-1.4021997.600675-3.2575933.1458726-4.914075.1479068-8.5074313.0104444-9.5374705.8988568-11.1818678,9.4895199-.1325725.6926101-.5933979,1.3223108-1.2204245,2.6625349ZM88.5249074,94.7721082c0-5.9552488-.138922-11.9149759.0528439-17.8640309.1125076-3.4901101-1.2682996-4.6312605-4.656258-4.5725638-8.9249939.1546471-17.8554876.1342516-26.78146.0125166-3.2039643-.043698-4.3970603,1.21143-4.3727321,4.3815966.0926665,12.0752019.1303309,24.15281-.0265623,36.2267216-.0462252,3.5571031,1.6066987,4.7172144,4.7425143,4.7191423,8.9271407.005503,17.8542738.005412,26.7814145.0086758,3.0408923.0011082,4.4130364-1.3186598,4.3152834-4.5516143-.1848854-6.1150953-.0534432-12.2397545-.0550439-18.360444Z"/><path class="cls-1" d="M107.8633965,89.8156713c.0008041,6.1206894-.1306381,12.2453487.0542473,18.360444.0977529,3.2329545-1.2743912,4.5527225-4.3152834,4.5516143-8.9271407-.0032639-17.8542738-.0031728-26.7814145-.0086758-3.1358156-.001928-4.7887395-1.1620392-4.7425143-4.7191423.1568932-12.0739116.1192288-24.1515197.0265623-36.2267216-.0243282-3.1701666,1.1687678-4.4252946,4.3727321-4.3815966,8.9259725.1217351,17.8564662.1421305,26.78146-.0125166,3.3879584-.0586967,4.7687656,1.0824537,4.656258,4.5725638-.1917659,5.949055-.0528439,11.9087821-.0520474,17.8640309ZM90.1457385,89.1975383c-15.189995-.0195909-15.1278431-.0231204-14.2664553,15.1792409.1636826,2.8887217,1.1470681,4.2692281,4.0996369,4.2041479,3.2957205-.0726403,6.5963718.0720634,9.891766-.0073551,17.018337-.4101025,13.9207774,3.2826793,14.2359976-15.30824.0027992-.164841.0645415-.3981779-.0194049-.4845265-1.1727163-1.2061699-2.2452825-3.2267-3.5780174-3.4198077-3.3912734-.491373-6.9011309-.1634596-10.3635228-.1634596Z"/><path class="cls-1" d="M90.2866063,80.3931803c3.462392,0,6.9722494-.3279135,10.3635228.1634596,1.3327349.1931077,2.4053011,2.2136379,3.5780174,3.4198077.0839464.0863485.0222042.3196855.0194049.4845265-.3152201,18.5909193,2.7823394,14.8981375-14.2359976,15.30824-3.2953943.0794185-6.5960456-.0652851-9.891766.0073551-2.9525687.0650802-3.9359542-1.3154263-4.0996369-4.2041479-.8613878-15.2023613-.9235397-15.1988317,14.2664553-15.1792409Z"/></g></svg>