<?xml version="1.0" encoding="UTF-8"?><svg id="_レイヤー_2" xmlns="http://www.w3.org/2000/svg" viewBox="0 0 180 180.1046697"><defs><style>.cls-1{fill:#1baf92;}.cls-2{fill:#fff;stroke:#999;stroke-miterlimit:10;}</style></defs><g id="_診療案内"><ellipse class="cls-2" cx="90" cy="90.0523348" rx="89.5" ry="89.5523348"/><path class="cls-1" d="M93.2251614,85.1713157c0,3.8105395-.3091741,7.6525715.0744109,11.4240507.5391279,5.3007426-1.7219411,8.5942914-6.4210902,10.4275812-2.1308708.8313249-4.4262132,1.2296394-6.6022737,1.9580079-6.1960597,2.0739211-12.3985979,4.1353333-18.5393483,6.3650324-3.2509556,1.180408-6.284315,3.0201573-9.5832595,3.9955861-5.5950834,1.6543762-9.4955049-.70184-9.859446-6.372805-.7163211-11.1616957-1.3877219-22.369116-1.1460592-33.5374305.2395083-11.0685537,7.8826995-18.9886266,19.3770792-19.1781972,9.1265988-.1505179,18.3169047,1.8176384,27.4260785,3.19501,3.7894311.5729851,5.3347251,3.4594904,5.2420017,7.3104944-.1156179,4.8016577-.0277571,9.6082112-.0277571,14.4126546.0198904,0,.0397733.0000076.0596637.0000152ZM90.4693729,84.9160197c.0087163-.0000759.0174326-.0001594.0261489-.0002429,0-4.134597.101379-8.2724503-.0311556-12.402789-.1117946-3.4836887-1.6067025-5.9092205-5.4161378-6.5823384-5.6799477-1.0036349-11.2744546-2.623543-16.9858766-3.2906417-14.1648563-1.6544521-24.9624374,7.3361879-24.4474671,20.5792888.3683978,9.4737622,3.3855043,18.6906649,1.8767064,28.4559598-.7218627,4.6720818,2.8297176,6.4868282,7.2196509,4.2681351,9.7226177-4.913882,19.3113391-10.0602204,30.4511047-11.0021983.4849716-.041011.9655281-.2308017,1.4301996-.4004854,3.8246452-1.3966589,5.9351931-4.0060533,5.8861877-8.2116966-.0443249-3.8038523-.0093611-7.608623-.0093611-11.4129915Z"/><path class="cls-1" d="M96.796837,84.3797494c0-3.9744393.0923365-7.9516642-.0276661-11.9224752-.1062416-3.5158796,1.634763-5.3307247,4.940368-5.5429755,10.4653039-.671949,20.9285368-.4968609,30.7938278,3.4605075,2.5213059,1.0113847,5.2428513,3.6432391,6.1181669,6.1450547,1.3099466,3.7440247-2.2383945,5.5411234-5.0312935,7.5171586-3.9742482,2.811846-7.870634,5.8497193-11.3008311,9.2896416-5.8212442,5.8377719-12.5232431,9.0008947-20.8201484,8.6194308-3.0078326-.1382897-4.6008576-1.6428236-4.6324987-4.649895-.0452883-4.3050397-.0115383-8.6109144-.0115383-12.9164323-.0094597-.0000076-.018927-.0000076-.0283867-.0000152ZM99.9134297,83.9393612c0,3.3086993.1381558,6.6246853-.03551,9.9242305-.2098737,3.9874113,1.7902073,6.0265987,5.3307576,4.7185958,4.8254632-1.7826845,10.0461559-3.7105282,13.7196049-7.0799811,4.2465014-3.8950663,7.720424-8.4319021,13.4112273-10.545597,1.446388-.5372191,2.3667492-2.4923199,3.5288148-3.7959279-1.4024501-1.2398409-2.6364914-3.2330228-4.2360858-3.5910551-7.5213301-1.6834854-15.0934027-3.5323584-22.7419876-4.1509923-8.7499702-.707715-8.9771702.0072109-8.9844072,8.5650455-.0016841,1.9852271-.0002503,3.9704543.007586,5.9556814Z"/><path class="cls-1" d="M90.4693729,84.9160197c0,3.8043684-.0349638,7.6091392.0093611,11.4129915.0490054,4.2056433-2.0615426,6.8150377-5.8861877,8.2116966-.4646715.1696837-.945228.3594744-1.4301996.4004854-11.1397656.9419779-20.728487,6.0883163-30.4511047,11.0021983-4.3899333,2.2186931-7.9415136.4039466-7.2196509-4.2681351,1.5087979-9.7652949-1.5083086-18.9821975-1.8767064-28.4559598-.5149703-13.2431009,10.2826108-22.2337409,24.4474671-20.5792888,5.711422.6670987,11.3059288,2.2870068,16.9858766,3.2906417,3.8094353.6731179,5.3043432,3.0986497,5.4161378,6.5823384.1325346,4.1303388.0311556,8.268192.0311556,12.402789-.0087163.0000835-.0174326.000167-.0261489.0002429Z"/><path class="cls-1" d="M99.9095154,83.9393612c-.003922-1.9852271-.0053557-3.9704543-.0036716-5.9556814.007237-8.5578346.2344371-9.2727605,8.9844072-8.5650455,7.6485848.6186339,15.2206575,2.4675068,22.7419876,4.1509923,1.5995944.3580322,2.8336358,2.3512141,4.2360858,3.5910551-1.1620656,1.303608-2.0824268,3.2587088-3.5288148,3.7959279-5.6908033,2.1136949-9.1647259,6.6505307-13.4112273,10.545597-3.673449,3.3694529-8.8941417,5.2972965-13.7196049,7.0799811-3.5405503,1.3080028-5.5406313-.7311845-5.3307576-4.7185958.1736658-3.2995452.03551-6.6155313.0315956-9.9242305Z"/></g></svg>