<?xml version="1.0" encoding="UTF-8"?><svg id="_レイヤー_2" xmlns="http://www.w3.org/2000/svg" viewBox="0 0 240.0000298 185"><defs><style>.cls-1{fill:#f15a24;}.cls-2{fill:#fff9c0;}.cls-3{fill:#44e2a4;}.cls-4{fill:rgba(27,175,146,.5);}.cls-5{fill:#1baf92;}.cls-6{fill:rgba(68,226,164,.5);}.cls-7{fill:#97dcff;}.cls-8{fill:#5acbe5;}.cls-9{opacity:.8;}.cls-10{fill:#c7b299;}.cls-11{fill:#17a5a2;}</style></defs><g id="header"><path class="cls-11" d="M31.5015946,123.5295511c0-1.1725294.1928975-2.5402344.5306047-3.6636932.385795-1.367705,1.5431799-1.9539697,2.7007469-1.9539697,1.3504645,0,2.6526591.8305109,2.6526591,2.2469176,0,.1955446-.0482699.4397908-.0963577.684037-.1928975.7327386-.2894373,1.7097235-.2894373,2.4424621,0,3.0770595,1.6399018,4.7377124,10.6589065,4.7377124,4.6781738,0,9.1636322-.5858957,13.1667559-1.4164067.2894373-.0487017.5304225-.0977723.7715899-.0977723,1.5916319,0,2.5563015,1.3190033,2.5563015,2.6867083,0,1.1721604-.7235022,2.3933915-2.3632218,2.7841117-4.244291.9769848-8.922647,1.5141789-14.1314254,1.5141789-11.623576,0-16.1571222-3.3216747-16.1571222-9.9642862ZM47.947972,99.2528796c3.5207889,0,6.7523226-.2442462,9.1155444-.6349664,1.9774269-.2442462,3.0384541,1.2212311,3.0384541,2.6865239,0,1.1723449-.6752323,2.3445054-2.1703244,2.6374532-2.8938265.4397908-6.2699878.684037-9.9354043.684037-3.7136864,0-7.4273727-.2929479-10.5140967-.9282832-1.4470043-.3416495-2.1222366-1.5139945-2.1222366-2.6863394,0-1.5630651,1.157567-3.1261301,3.1832638-2.7352255,2.5561193.5371941,5.835923.9768004,9.4047996.9768004Z"/><path class="cls-11" d="M93.5721426,102.2325358h.3377072c1.8808871,0,3.472519-.0977723,4.9676111-.2442462,1.6881717-.1464739,2.5563015,1.2212311,2.5563015,2.5889361,0,1.2212311-.6750501,2.3933915-2.0739667,2.4911638-1.4950921.1951756-2.9420964.2442462-5.353406.2442462h-1.3504645c-.2892551,2.2956192-.6754144,4.5425368-1.0127573,6.838156h.7715899c2.5563015,0,5.4018581-.2442462,7.5720003-.6349664,1.7847115-.2929479,2.8455566,1.1234588,2.8455566,2.5402344,0,1.1721604-.6269624,2.2956192-2.0736024,2.5885671-2.3151341.4884924-5.5949377.7814403-8.3920423.7814403h-1.3504645c-.1449919,1.7097235-.1930796,3.0774285-.1930796,4.2495889,0,5.2756444,2.1705065,7.0827712,6.4146154,7.0827712,5.3053183,0,8.1508749-1.9048991,8.1508749-6.7407527,0-1.1234588-.2411674-2.4907948-.5788746-3.6146226-.0480878-.2442462-.0961755-.4884924-.0961755-.7327386,0-1.4654773,1.3504645-2.3443209,2.7490168-2.3443209,1.2058369,0,2.4113096.6349664,2.8455566,2.1000747.4823348,1.5141789.7235022,3.0283579.7235022,4.4938351,0,8.3527039-5.5949377,12.4071173-13.6973606,12.4071173-7.5239125,0-12.009371-3.9079394-12.009371-12.2602744,0-1.4654773.0482699-3.0283579.2411674-4.9336259-2.2668642-.2442462-4.1477512-.5371941-5.7876531-.9769848-1.3985523-.3907201-2.0256968-1.5141789-2.0256968-2.6376377,0-1.367705.9163997-2.6863394,2.4597617-2.6863394.2894373,0,.5788746,0,.8681297.0974033,1.4952742.3910891,3.1349939.684037,5.1124208.9282832.2894373-2.2956192.6269624-4.5425368,1.0129395-6.838156-1.8810692-.1468429-3.5690588-.4397908-5.0641509-.7818093-1.4470043-.3420185-2.0739667-1.4164067-2.0739667-2.4420932,0-1.5143634,1.2058369-2.9798407,3.0384541-2.5889361,1.543362.341834,3.1349939.5860802,4.9677932.7814403l1.2058369-7.0337006c.2411674-1.4165911,1.4950921-2.0515575,2.7490168-2.0515575,1.4950921,0,2.9901842.9768004,2.652477,2.7841117l-1.1092971,6.5453926Z"/><path class="cls-11" d="M135.5308968,109.9012027c6.7042349-6.6916821,10.4179212-9.2806182,13.9385279-9.2806182,4.4371885,0,6.3180756,3.1261301,6.0772725,7.2292451l-.9165818,17.1939003c-.0480878,1.1721604.3377072,1.4651083,1.2058369,1.4651083,1.0127573,0,2.4113096-.4884924,4.6299039-2.8818839.6754144-.7327386,1.4470043-1.0256865,2.1705065-1.0256865,1.4470043,0,2.700929,1.2212311,2.700929,2.6867083,0,.6345974-.2411674,1.367336-.8681297,2.051373-3.086724,3.4681486-6.1253603,4.8354847-9.0674567,4.8354847-4.2921967,0-6.6073307-1.9536007-6.3661633-6.7407527l.8681297-16.6072666c.0965398-1.8071268-.2896194-2.5889361-1.5435442-2.5889361-2.0255146,0-5.5464857,2.7844806-12.9738584,10.5996215l-.0480878,16.5098633c0,1.6606529-1.3023768,2.4911638-2.6043892,2.4911638-1.3023768,0-2.5563015-.8305109-2.5563015-2.4911638l.1446276-10.9903416-3.6652343,5.7150662c-.5788746.830142-1.3023768,1.2208621-2.0258789,1.2208621-1.3504645,0-2.652477-1.1721604-2.652477-2.5398654,0-.4394218.1446276-.9279142.4338827-1.367705,2.3632218-3.419078,5.2087785-8.20623,8.0543351-13.676681l.0965398-2.9796562-5.739201,1.0747571c-1.6881717.2929479-2.6043892-1.1238277-2.6043892-2.4911638,0-1.1238277.5785103-2.2469176,1.8808871-2.4424621l6.5111552-1.1234588.0961755-7.6686669c.0484521-1.5143634,1.3504645-2.2958037,2.6043892-2.2958037,1.3023768,0,2.6047535.7814403,2.5563015,2.2958037l-.1446276,6.9359283c1.2058369.0490706,1.6397197.8792126,1.6397197,1.5632495,0,.8792126-.3373429,1.7584251-1.7362595,3.3213057l-.0965398,2.0026714Z"/><path class="cls-11" d="M182.3126345,103.6489424c-2.1705065.4884924-4.9195233.9282832-7.4754605,1.2212311-1.9293391.1955446-2.9420964-1.2212311-2.9420964-2.6865239,0-1.1723449.7235022-2.3445054,2.3147698-2.4911638,4.292561-.3907201,9.1639965-1.0745726,13.0223104-1.9048991,2.0255146-.3907201,3.4244312,1.1234588,3.4244312,2.6865239,0,.7814403-.3377072,1.5630651-1.0612094,2.1491453-7.2346574,5.9106108-9.3567118,12.6022929-9.3567118,18.0727439,0,6.1057864,3.086724,9.0854426,7.5723646,9.0854426,6.6557828,0,11.0445193-5.0800998,11.0445193-15.3864045,0-5.3726788-.6750501-10.1107601-1.8808871-14.2140596-.0484521-.2442462-.0965398-.4884924-.0965398-.6838525,0-1.5630651,1.3985523-2.5398654,2.8455566-2.5398654,1.0127573,0,2.0739667.4883079,2.6043892,1.6606529,2.3632218,4.9823276,6.4146154,10.5996215,10.080214,14.0674012.7715899.7327386,1.1092971,1.5632495,1.1092971,2.3450588,0,1.5141789-1.3504645,2.8328133-2.7974689,2.8328133-.7715899,0-1.5431799-.3416495-2.2185943-1.2212311-2.4597617-3.0770595-4.2441089-5.9102418-5.4018581-8.2549316l-.0961755.0487017c.4823348,2.5402344.7231379,5.0800998.7231379,7.6203342,0,12.308976-6.3661633,19.2449043-15.819415,19.2449043-7.2827451,0-13.0700339-4.4447645-13.0700339-14.506823,0-5.3734167,1.9774269-11.5766063,7.5235482-17.0474263l-.0480878-.0977723ZM203.8716148,95.7849154c0-.9769848.9643053-1.8073113,2.0255146-1.8073113.4823348,0,1.0127573.1953601,1.4470043.6838525,1.2058369,1.3188189,2.5078494,3.0283579,3.3759792,4.5914229.2411674.3909046.3377072.7816248.3377072,1.1723449,0,1.1234588-.9646696,1.9537852-1.9774269,1.9537852-.6269624,0-1.2539247-.341834-1.6397197-1.0745726-1.0131216-1.709539-2.1705065-3.2237179-3.1832638-4.444949-.2896194-.341834-.385795-.7327386-.385795-1.0745726ZM208.9838534,92.3656529c0-.9768004.9646696-1.709539,1.9774269-1.709539.5304225,0,1.1092971.1953601,1.5916319.6838525,1.1573849,1.2210466,2.4597617,2.8329978,3.3278914,4.3471767.2892551.4884924.4338827.9280987.4338827,1.3188189,0,1.1234588-.9162175,1.9050836-1.9289748,1.9050836-.6269624,0-1.3023768-.3420185-1.7847115-1.0745726-.9643053-1.5143634-2.1701422-3.1261301-3.1828995-4.3962473-.2896194-.341834-.434247-.7325542-.434247-1.0745726Z"/><path class="cls-11" d="M30.5817093,158.0547205c-.1898687,1.3070413-.493349,2.6140826-.8730865,3.8827045,3.2645423,1.730046,6.3392159,4.1904512,8.7686068,6.6124371.6073477.6151013.8351515,1.2302026.8351515,1.8068846,0,1.2302026-1.0250202,2.1910779-2.125717,2.1910779-.4556076,0-.9489566-.1920966-1.3666291-.6535206-2.3153922-2.5372439-4.8208467-4.6514832-7.4399127-6.3431098-1.4424992,3.1907646-3.4162825,5.7664278-5.8838019,7.8426398-.5692191.461032-1.1386318.6535206-1.6321744.6535206-1.1006968,0-1.9358483-.8844287-1.9358483-1.9225346,0-.5762899.2657388-1.1913913.9110216-1.6912346,3.5682162-2.8834099,5.6937396-6.7276951,6.6808248-12.3788649h-6.7566949c-1.4424992,0-1.8601717.4994513-1.8601717,1.5759766v22.6819099c0,1.0765253-1.0248267,1.614788-2.087782,1.614788-1.0248267,0-2.0875884-.5382627-2.0875884-1.614788v-23.1817533c0-2.9986679,1.5183693-4.8435798,5.2762607-4.8435798h7.9713903c.1139987-1.4611106.1898687-2.9986679.1898687-4.6518752,0-1.3070413,1.0248267-1.9221426,2.0498469-1.9221426,1.0248267,0,2.0496534.6151013,2.0496534,1.9221426,0,1.614788-.0758701,3.1907646-.1896752,4.6518752h8.2750642c3.7199564,0,5.2762607,1.8449119,5.2762607,4.8435798v19.4143067c0,3.4212805-1.7459795,4.7287139-4.5930429,4.7287139-1.4423057,0-2.3914558-.11565-3.3024774-.3077467-1.1386318-.230516-1.6321744-1.153364-1.6321744-2.0758199,0-1.1917833.8351515-2.3835666,2.3155857-2.1146313.6832178.11565,1.4043706.1924887,2.0496534.1924887s.9870852-.346166.9870852-1.268622v-18.0688461c0-1.0765253-.4176725-1.5759766-1.8599782-1.5759766h-8.0095189Z"/><path class="cls-11" d="M55.1020667,169.5875761c-.8730865,2.076212-1.9737833,4.1136125-3.2264138,5.8436585-.4935426.69194-1.0629553.9608753-1.6323679.9608753-.9110216,0-1.7080445-.7687786-1.7080445-1.6912346,0-.346166.1138051-.7303593.3795439-1.1149446,2.2774571-3.1907646,4.1376289-7.1122805,5.6559982-11.8021829h-4.0617588c-.9868916,0-1.4423057-.922848-1.4423057-1.8453039,0-.8844287.455414-1.8068846,1.4043706-1.8068846h4.4792378v-3.4600919c-1.1008903.230516-2.163652.4230047-3.1886723.5382627-1.2905655.1536773-2.0117183-.8456173-2.0117183-1.8453039,0-.807198.493349-1.614788,1.4804342-1.7684653,2.8848049-.461424,6.4530211-1.4607186,9.2998909-2.6525019.3036739-.115258.5694127-.1924887.8351515-.1924887,1.1008903,0,1.8220431,1.038106,1.8220431,2.076212,0,.69194-.3036739,1.3454606-1.1008903,1.6916266-1.0627617.4226126-2.125717.807198-3.2264138,1.1529719v4.4597785h3.6440863c.9868916,0,1.4423057.922456,1.4423057,1.8068846,0,.922456-.455414,1.8453039-1.4423057,1.8453039h-3.6440863v2.2294972c1.5942394,1.0765253,3.1126086,2.3067279,4.251434,3.6521886.3795439.4230047.5314776.8844287.5314776,1.3070413,0,.9612673-.8351515,1.7684653-1.7461731,1.7684653-.4556076,0-.9110216-.1920966-1.3286941-.69194-.493349-.6151013-1.1006968-1.2302026-1.7080445-1.8453039v14.1857495c0,1.0765253-.9870852,1.614788-1.9360418,1.614788-.9868916,0-1.9737833-.5382627-1.9737833-1.614788v-4.3057092l.1517402-8.4961604Z"/><path class="cls-11" d="M82.0531699,167.4349176c1.2905655-.3077467,2.125717.8840366,2.125717,1.9989813,0,.7687786-.417479,1.5379493-1.3285005,1.730046l-3.4923461.7687786v10.0337177c0,1.1917833-1.0248267,1.7684653-2.0498469,1.7684653-1.0627617,0-2.0875884-.576682-2.0875884-1.7684653v-9.0724504l-10.173171,2.2679166c-1.2905655.2693273-2.125717-.922456-2.125717-2.0758199,0-.7687786.3795439-1.4991379,1.2905655-1.6916266l11.0083224-2.4604053v-19.0297214c0-1.1917833,1.0248267-1.7680732,2.0875884-1.7680732,1.0250202,0,2.0498469.5762899,2.0498469,1.7680732v18.1456848l2.6951297-.6151013Z"/><path class="cls-11" d="M105.6673444,163.1060784c2.4746806-.0301866,3.7273111.9663638,3.7273111,2.7779528,0,.4833779-.0894183,1.026737-.2682549,1.6006747-2.0573952,7.0362259-7.1565612,13.4083462-13.6568075,17.0926815-.3578668.1811197-.6859274.2716795-.9839885.2716795-.9839885,0-1.699722-.8154307-1.699722-1.7214212,0-.5735457.3280607-1.2078567,1.0436007-1.6304693,5.9339304-3.5334023,9.8996903-8.606714,11.7186367-14.3445233.0596122-.1509331.0894183-.3022582.0894183-.4230047,0-.3320528-.2384488-.4829859-.8051518-.4829859l-6.6792765.0603732c-1.4610796,2.1742204-3.1606081,4.1975078-4.8603301,5.7378093-.4472851.4226126-.9243763.5735457-1.3716613.5735457-.8943766,0-1.6697223-.6942922-1.6697223-1.6002827,0-.4531913.2384488-.9663638.7455396-1.4497417,2.8325474-2.5968331,5.6354823-6.6739865,7.1861737-10.3885084.3278671-.784852.9839885-1.1474835,1.6399162-1.1474835.8945701,0,1.7593342.634311,1.7593342,1.6006747,0,.2113063-.0596122.4527992-.1492241.6946842-.3874793.9361771-.8347644,1.8723543-1.3416617,2.838718l5.5758701-.0603732Z"/><path class="cls-11" d="M125.7028512,173.1319553c0,1.026737-.8949572,1.5704881-1.7891403,1.5704881-.8949572,0-1.7891403-.5437511-1.7891403-1.5704881v-11.8680447c0-1.0569236.8941831-1.6006747,1.7891403-1.6006747.8941831,0,1.7891403.5437511,1.7891403,1.6006747v11.8680447Z"/><path class="cls-11" d="M133.5747589,160.7503462c0-1.026737.8945701-1.5399095,1.8189464-1.5399095.864764,0,1.7593342.5131725,1.7593342,1.5399095v8.9689534c0,7.6403502-3.2206074,12.2608627-8.9755076,15.0392075-.3278671.1509331-.6259281.2414929-.8945701.2414929-1.0137946,0-1.7589471-.8758039-1.7589471-1.7817944,0-.5735457.32748-1.1776701,1.1032129-1.5700961,4.9795545-2.4764786,6.9475314-6.1306274,6.9475314-12.1703029v-8.7274604Z"/><path class="cls-11" d="M169.7415603,177.1181568c1.0734068,0,1.6103037.8456173,1.6103037,1.7214212,0,.8456173-.5368969,1.7214212-1.6103037,1.7214212h-21.7673575c-1.0734068,0-1.6099166-.8758039-1.6099166-1.7214212,0-.8758039.5365098-1.7214212,1.6099166-1.7214212h21.7673575Z"/><path class="cls-11" d="M166.4617278,163.0151265c1.0734068,0,1.6099166.8456173,1.6099166,1.7214212,0,.8456173-.5365098,1.7214212-1.6099166,1.7214212h-15.2073054c-1.0734068,0-1.6103037-.8758039-1.6103037-1.7214212,0-.8758039.5368969-1.7214212,1.6103037-1.7214212h15.2073054Z"/><path class="cls-11" d="M195.8602216,165.7029114c.8349579,0,1.7295281.5437511,1.7295281,1.4497417,0,.1207465-.0298061.2414929-.0596122.392426-1.8785586,7.1271777-6.6196643,13.4687194-12.3447584,16.6093036-.2984481.1509331-.566703.241885-.8349579.241885-.864764,0-1.5208854-.7852441-1.5208854-1.6006747,0-.5437511.2682549-1.0871102.9243763-1.4497417,5.3376148-3.0500244,8.8558961-8.0327762,10.6450364-14.5860162.1788366-.7546654.8051518-1.0569236,1.4612732-1.0569236Z"/><path class="cls-11" d="M222.5448117,163.1060784c2.4750677-.0301866,3.7273111.9663638,3.7273111,2.7779528,0,.4833779-.0894183,1.026737-.2682549,1.6006747-2.0573952,7.0362259-7.1565612,13.4083462-13.657001,17.0926815-.3576732.1811197-.6855403.2716795-.9839885.2716795-.9839885,0-1.6993349-.8154307-1.6993349-1.7214212,0-.5735457.3278671-1.2078567,1.0436007-1.6304693,5.9337368-3.5334023,9.8994967-8.606714,11.7184431-14.3445233.0596122-.1509331.0894183-.3022582.0894183-.4230047,0-.3320528-.2384488-.4829859-.8051518-.4829859l-6.6792765.0603732c-1.4608861,2.1742204-3.1606081,4.1975078-4.8603301,5.7378093-.4470915.4226126-.9243763.5735457-1.3714678.5735457-.8945701,0-1.6699159-.6942922-1.6699159-1.6002827,0-.4531913.2384488-.9663638.7455396-1.4497417,2.832741-2.5968331,5.6356758-6.6739865,7.1859802-10.3885084.3282542-.784852.9839885-1.1474835,1.6401098-1.1474835.8945701,0,1.7593342.634311,1.7593342,1.6006747,0,.2113063-.0596122.4527992-.1490305.6946842-.3878664.9361771-.8349579,1.8723543-1.3420488,2.838718l5.5760636-.0603732Z"/><path class="cls-3" d="M65.0429324,163.6724368c.2595934.467153.4239208.9819554.6730331,1.4548239.9369709,1.7785713,2.7634664,2.7367214,4.7322199,2.4458003.4307107-.0636458.8550611-.1753605,1.2607025-.3334411.1450134-.0565125,1.1329309-.3148173,1.2553389-.1845457-.6346344-.6754035-.9388837-1.7670062-1.5193248-2.4822556-1.1912227-1.4678687-3.3370484-1.8127349-5.0397386-1.2719353"/><path class="cls-5" d="M66.0070395,157.8139456c.2595934.467153.4239208.9819554.6730331,1.4548239.9369709,1.7785713,2.7634664,2.7367214,4.7322199,2.4458003.4307107-.0636458.8550611-.1753605,1.2607025-.3334411.1450134-.0565125,1.1329309-.3148173,1.2553389-.1845457-.6346344-.6754035-.9388837-1.7670062-1.5193248-2.4822556-1.1912227-1.4678687-3.3370484-1.8127349-5.0397386-1.2719353"/><path class="cls-3" d="M186.1617654,164.400894c-.2245059.4854424-.5426644.9200605-.777854,1.4001862-.8846043,1.8058673-.593018,3.8680634.7849096,5.3215934.3014538.3179936.637836.6028093,1.0006017.8452593.1296857.0866739.911381.7507764.8778427.9273711.173882-.9155698.8741997-1.8007226,1.1115942-2.6947844.487184-1.8348475-.4827768-3.8038114-1.9068635-4.8928383"/><path class="cls-5" d="M180.0424486,165.3486186c-.2226323.4863266-.5391125.9221998-.7724489,1.403252-.8776341,1.8093522-.5780982,3.8703794.8054236,5.3184484.3026777.3167989.6401555.600282,1.0038534.8412954.130019.0861603.914269.747166.8814119.9238921.1703503-.9162505.8672494-1.8041664,1.1011946-2.6991603.4801052-1.8367603-.4974406-3.801873-1.9257157-4.8852592"/><ellipse class="cls-2" cx="27.2413568" cy="53.9069548" rx="5.1649106" ry="5.2308475"/><ellipse class="cls-2" cx="153.666979" cy="66.6240447" rx="10.5751563" ry="10.7101623"/><ellipse class="cls-2" cx="115.7539241" cy="18.533302" rx="6.5445478" ry="6.6280976"/><ellipse class="cls-2" cx="83.309042" cy="59.0957537" rx="9.0193297" ry="9.1344735"/><ellipse class="cls-2" cx="47.8161618" cy="6.102868" rx="6.0259389" ry="6.102868"/><path class="cls-10" d="M154.6552522,22.3994438c-.7333383-.230226-1.5031067-.3833411-2.2470098-.5314753-.6644854-.1322693-1.3515574-.268966-2.0149499-.4606365-5.3792714-1.5543947-8.9286579-5.9882751-9.2627221-11.571441-.0728602-1.2260274-.0112933-2.4546375.1825149-3.6515178.0874323-.5406991.1683072-3.2239024-.170493-3.4336516,0,0,.0003643,0,0,0l.0976327-.161232c0,.0001845.0003643.000369.0003643.000369,1.1486417.7117084,2.5887243,1.1051957,3.9814477,1.4857696,1.2054726.3292896,2.451747.6698323,3.4965628,1.2156968,4.9464816,2.5837707,6.7242714,8.6008241,6.2831027,13.0979798l-.1857936-.0188166c.4353399-4.4355407-1.3136701-10.3679197-6.1825555-12.9112901-1.0273294-.5364562-2.2641319-.8744162-3.4601327-1.2013077-1.2921763-.353087-2.6247901-.7170582-3.7417376-1.3378199.2615683.8878829.0918039,3.1344316.0659385,3.2949257-.1919867,1.1830445-.252825,2.39745-.1803291,3.6094572.328964,5.5008896,3.8262554,9.8694655,9.1272021,11.4013542.6561064.1894568,1.3391712.3254156,2.0000135.4567626.748639.1490566,1.5231433.3032785,2.2663177.5364562l-.0553738.1804175Z"/><path class="cls-10" d="M11.3165763,46.8803302c-1.3939985,0-2.8156839-.2385275-4.2253474-.7281267-1.1460916-.3980992-2.2442775-.9234868-3.2641387-1.5614048-.4601124-.287967-2.8783437-1.3854147-3.1996574-1.1489165l-.110019-.1523772c1.0874391-.8044998,1.9954598-2.0032248,2.8734257-3.1624719.7599323-1.0033649,1.54573-2.0408579,2.4419109-2.8112296,4.2428338-3.6472748,10.4135496-3.019872,14.351099-.8937862l-.0877966.1667663c-3.8834507-2.0971231-9.9656413-2.7193606-14.1427188.8709112-.8810624.7574584-1.6604848,1.7868344-2.4145883,2.7822669-.8143953,1.075495-1.654656,2.1847492-2.6466482,2.9940453.9103887.0933449,2.8965588,1.1087007,3.0329896,1.1939286,1.0080214.6307234,2.093639,1.1500233,3.2266157,1.5436951,5.1473937,1.7872034,10.4676483.177097,13.8857043-4.2036544.4231358-.5423594.8076557-1.1304689,1.1796073-1.6993928.4211322-.6441902.8566543-1.310333,1.3524682-1.9170745l.1435347.1202783c-.4892565.599178-.9220463,1.2610779-1.3406284,1.9012096-.3739552.57206-.7606609,1.1634901-1.1885326,1.7119372-2.5324397,3.2458551-6.0954876,4.9933961-9.86728,4.9933961Z"/><path class="cls-10" d="M43.6186166,73.4280856c-1.0628487,0-2.1470091-.1818933-3.2218797-.5552727-.8735943-.3032785-1.7103941-.7035914-2.4876307-1.1898701-.4000027-.2501494-2.1863536-1.0360172-2.4093059-.8749696,0,.0001845,0,0,0,0l-.110019-.1523772c0-.0001845.0001822-.0001845.0001822-.0001845.8247779-.6100621,1.5144001-1.5206356,2.1812534-2.4011395.5788746-.764284,1.1772393-1.5545792,1.8610326-2.1421352,3.235541-2.7817135,7.9403088-2.3039207,10.9423328-.6827456l-.0877966.1667663c-2.9482896-1.5922123-7.5645321-2.0639174-10.7339525.6598706-.6684927.5746427-1.2608464,1.3568209-1.8335279,2.1131725-.6103866.8057911-1.2393527,1.636302-1.979977,2.250976.7242308.103491,2.1661349.8384434,2.2677749.9019031.7653968.4788997,1.5898104.8733093,2.4501077,1.1721604,3.9065838,1.3568209,7.9446804.134114,10.5386871-3.1905123.3211315-.4117504.6133011-.8585513.8958166-1.2907785.3207672-.4907061.6526456-.9981996,1.0306081-1.4606809l.1435347.1202783c-.3715872.4549178-.7005512.9579838-1.0185861,1.4446315-.2847014.4355478-.5790567.8856692-.9049242,1.3035074-1.9309785,2.4749299-4.6477546,3.8074-7.5237304,3.8074Z"/><path class="cls-10" d="M159.0895263,31.9453384l-.185065-.023244c.0732245-.6004694.0830607-1.2186484.0925325-1.8165351.0087432-.5351649.0174865-1.0885928.071403-1.6315057.4371614-4.4036264,3.312955-7.779537,7.5056975-8.8105733.9184033-.2257986,1.859029-.3477372,2.7956474-.3621264.4823348-.007379,2.4568472-.3257846,2.5588516-.5923524,0,0,0,.0001845,0,0l.174136.0686251s-.0003643,0-.0003643.0001845c-.3796018.9876845-.4790561,2.1592915-.5752316,3.292343-.083425.983257-.1701287,2.0000887-.4400758,2.8896319-1.2786972,4.2088197-5.6004022,6.4245609-9.0747427,6.7018283l-.014572-.1881655c3.4135022-.2726555,7.6579754-2.4446758,8.9108072-6.5693745.2644827-.8699888.3500934-1.8766743.4327898-2.8501541.0881609-1.0382309.1788719-2.1081916.4845206-3.0534466-.6776002.3161918-2.330799.487939-2.4532042.4897838-.9227749.0142047-1.8499215.1342985-2.7548456.356961-4.1133248,1.0114819-6.9348375,4.3243017-7.36362,8.6456518-.053188.5351649-.0619312,1.0845344-.0706744,1.6156407-.0094718.6028675-.0196723,1.2262119-.0939897,1.8368274Z"/><path class="cls-10" d="M119.3956327,41.5832866c-.3136633-.1933308-.6542849-.3558542-.9832489-.5130277-.2961769-.1413086-.602372-.2874136-.8918093-.4571315-2.3510177-1.3769288-3.5034846-3.8902297-3.0076706-6.5592283.1085618-.584051.2806941-1.1542663.5118432-1.6945965.1242267-.2896273.42095-1.4311647.3273246-1.5722889l.1347914-.13024c.4490012.4641416,1.0730492.8175976,1.6765141,1.1592471.5271438.2986666,1.0723206.6074794,1.5007388.9902671,2.0280647,1.8108163,2.1624919,4.8563305,1.4291536,6.9195099l-.1755932-.0638287c.7125731-2.005254.5857963-4.9614818-1.3766942-6.7140037-.4138462-.3695054-.9500975-.6731529-1.4686803-.9670231-.5335191-.3021717-1.0827031-.6131982-1.5242362-1.0061321-.0267761.5240963-.3473612,1.4485055-.3520971,1.4597585-.2256846.5272324-.3938096,1.0839809-.4998212,1.6543807-.4806954,2.5878292.6373449,5.025126,2.9176883,6.3607322.2828799.1656594.585432.3101041.8779659.4497525.3336999.1592028.6786931.3239398,1.0007354.5226205l-.0969041.161232Z"/><path class="cls-10" d="M123.7821833,69.7337694v-.0005534c-.215302-1.0376774-.7646682-2.0738791-1.2958193-3.0759527-.460841-.8692509-.937347-1.7680179-1.1912649-2.6618041-1.2018296-4.2320637,1.220409-8.4805458,3.9796262-10.6368856l.113662.1494256c-2.7107652,2.1187068-5.0918378,6.2880486-3.914052,10.4350689.2484534.8746007.7202235,1.7643284,1.1763286,2.6249089.4870707.9183215.9887134,1.8652367,1.2429957,2.8263567.3970883-.6397627,1.6881717-1.6993928,1.7898118-1.7689403.7646682-.5226205,1.4757841-1.1363721,2.1136755-1.8244676,2.898016-3.1246543,3.4717904-7.460947,1.4976422-11.3166797-.2448104-.4777928-.5340655-.9428568-.8138489-1.3926093-.3173063-.5097072-.6451774-1.0369395-.9125745-1.5890762l.1675785-.0830142c.2630255.5429128.5883464,1.0659023.9027384,1.571551.2819691.4528886.5734101.9214576.8214992,1.406076,2.0116712,3.9291541,1.4266035,8.3482765-1.5267863,11.5332545-.6477275.6982416-1.3697725,1.321217-2.145734,1.851401-.3992741.2733934-1.8790656,1.6326125-1.8229632,1.9128316,0,0,0,.0001845.0003643.000369l-.1828792.03874Z"/><path class="cls-10" d="M85.7311059,21.6421698c-.0836071-.5989935-.2327885-1.1981716-.3768696-1.7776107-.1293269-.5192999-.2628433-1.0563095-.3502756-1.5951639-.7089301-4.3671001,1.2009189-8.3842493,4.9843689-10.4841395.8300603-.4606365,1.7071154-.8260835,2.606575-1.0861946.4635733-.1342985,2.2879936-.9616733,2.3189592-1.2459508h0l.1854293.0202924c-.1131155,1.0540958.0916218,2.2118671.2898016,3.3314519.1719502.9712661.3497291,1.9757379.3173063,2.9053124-.1537351,4.4008592-3.7577668,7.6788131-7.0413956,8.8618577l-.0626598-.1778349c3.2262514-1.1625677,6.7670768-4.3779842,6.9175332-8.6906639.0316942-.9094666-.1442633-1.9037922-.3143919-2.8652811-.181422-1.025871-.3686728-2.0834718-.3162134-3.0768751-.5732279.4838805-2.125151,1.0850878-2.2430024,1.1192158-.8863448.2564216-1.7502851.6163343-2.5683234,1.0703297-3.7118649,2.0602279-5.585648,6.0022953-4.8900149,10.2878571.0861572.5311064.218945,1.0640575.347179,1.5794834.1453562.5844199.2956304,1.1885788.3806947,1.7973496l-.1847007.0265645Z"/><path class="cls-10" d="M66.1972759,41.6129872c-.5511877-.2329932-1.1362554-.4089833-1.7020152-.5790701-.506743-.1525616-1.0307902-.3101041-1.5327973-.5089693-4.0701551-1.6112133-6.5066015-5.3248995-6.3588773-9.6918151.032605-.9570614.1697644-1.9072973.4078352-2.8245119.1227695-.4722585.3517328-2.4836003.1255018-2.6553474-.0001822-.0001845,0,0,0,0l.1118405-.1512703c.8373463.6364422,1.9247854,1.048746,2.9765229,1.4475831.9125745.346077,1.8562967.7039604,2.6293439,1.2066575,3.6583126,2.3797403,4.602217,7.191612,3.9311742,10.6553332l-.1828792-.0365262c.659203-3.4030286-.2641184-8.1278277-3.8492064-10.4597887-.7561071-.4919975-1.6903575-.8461914-2.5938245-1.1887633-.9635767-.3652625-1.9566617-.7419624-2.773425-1.294468.11858.7463899-.1633891,2.4046445-.194719,2.5245539-.23461.9037479-.3697657,1.840148-.4016421,2.7831893-.1449919,4.2842704,2.246099,7.9280402,6.2401151,9.5091839.4949032.1959135,1.0151253.3525336,1.5182252.5038039.5704957.1715627,1.1602993.3490286,1.7205945.5857113l-.0717673.1745143Z"/><path class="cls-10" d="M110.8085071,59.5184114c-1.3415391,0-2.6954645-.3558542-3.9634148-1.0788156-.6704963-.3822343-1.2965479-.8384434-1.8606683-1.3555296-.3227709-.296084-1.6324336-1.1684709-1.8233275-1.0812138l-.0808749-.1700869v-.0001845c.7635753-.3720881,1.4624871-1.010744,2.1382659-1.628554.5879821-.5371941,1.1960008-1.0928358,1.8442748-1.4700892,3.0670517-1.7851742,6.8523233-.6737063,9.0707354,1.1140505l-.1162121.1479497c-2.171053-1.7493858-5.8699851-2.8390855-8.8616265-1.0981856-.6309697.3671072-1.2315202.9159233-1.8122163,1.4466607-.6107509.5580399-1.2400813,1.133236-1.9269712,1.5235872.5919894.215099,1.6176794,1.0066855,1.6932719,1.075864.5537378.5078624,1.1683139.9557701,1.8267883,1.3311788,2.9878162,1.7034513,6.4667105,1.3208481,9.0783857-.9985685.3238638-.2874136.6295125-.6084018.9249607-.9186904.3355214-.3525336.6825183-.7170582,1.0612094-1.0380464l.1194908.1446292c-.3708586.314716-.7142125.6755511-1.0464552,1.0243952-.2981805.3132402-.6063793.6371801-.9362541.929759-1.5650379,1.3896576-3.4346316,2.0998902-5.3293622,2.0998902Z"/><path class="cls-10" d="M29.3383741,32.1587771c-.4094745-.4401597-.8728657-.8425019-1.320774-1.2315617-.4014599-.3486596-.816399-.7089412-1.1949079-1.0980011-3.0672339-3.1521413-3.7963827-7.549311-1.9029273-11.4755135.4149391-.860396.9229571-1.671537,1.5098463-2.4105478.3021878-.3803895,1.3211383-2.1225808,1.1837967-2.3727302,0-.0001845.0001822,0,0,0l.1632069-.091869c.5082002.9271763,1.3351639,1.7530753,2.1351693,2.5516719.6936295.6927073,1.4111207,1.4090276,1.9142206,2.1871474,2.3821655,3.68417,1.3063841,8.467448-.7010976,11.352837l-.1526422-.1088408c1.9725088-2.8348426,3.0320788-7.5301255.6978189-11.1405051-.4923531-.7611479-1.2025582-1.4702736-1.889266-2.1561554-.732974-.7316318-1.4883525-1.4859541-2.011489-2.3279025-.192351.730156-1.1174939,2.128115-1.1943615,2.2247805-.578146.7281267-1.0786958,1.5270923-1.4876239,2.3751284-1.8575718,3.8520432-1.1417199,8.1665676,1.8683187,11.2600455.3728623.3831566.7848869.7410401,1.1832503,1.0869325.4517335.3923804.9189498.7980431,1.335346,1.2455819l-.1358843.1295021Z"/><path class="cls-4" d="M155.3143223,22.7624222c-1.4478539-.182812-2.9184286-.0696534-4.3699787-.2194086-5.4596264-.5632652-9.7574666-4.2823841-11.0424869-9.6740532-.2811282-1.1795533-.4341643-2.3928881-.4507402-3.6063134-.0059258-.4337895-.3666932-3.256664-.8217836-3.4368998,2.3594533.9344476,5.4323422.5802908,7.8369393,1.333062,4.9348422,1.544909,8.0094831,6.7299607,8.3894847,11.6951086"/><path class="cls-6" d="M87.6309158,22.2434191c-.0882062-1.129007-.3993036-2.2295569-.5125833-3.3562663-.4260722-4.2378231,1.6665602-8.079992,5.4644441-9.8900326.8308757-.3959886,1.7065827-.6998122,2.6034416-.8999032.3206196-.0715309,2.3572592-.7819797,2.4205375-1.15582-.3280711,1.9382057.4092367,4.2197104.2228037,6.1641664-.3826313,3.990521-3.7508475,7.1292321-7.3724198,8.1853111"/><path class="cls-4" d="M67.1262074,40.5370724c-1.0831157-.6329242-2.281544-1.0398102-3.3784537-1.6478793-4.125739-2.2870932-6.2958548-6.6740827-5.5367223-11.3650949.1660779-1.0262683.4444141-2.0359871.8305323-2.9997296.138034-.34453.781866-2.695277.4818121-2.9911635,1.555654,1.5340483,4.0985935,2.29133,5.7496641,3.697156,3.3884044,2.885136,4.1103737,8.0168975,2.7769392,12.0657241"/><path class="cls-6" d="M31.5980579,32.2842231c-.7362927-.7893543-1.6221296-1.4217005-2.3757816-2.1940675-2.8346647-2.9050563-3.5535562-7.0487456-1.7923466-10.713586.3853057-.8017693.8588181-1.5620207,1.409724-2.2576936.1969443-.2486973,1.295914-2.019691,1.1211733-2.3373951.9059576,1.6471632,2.8113373,2.9017848,3.8267738,4.4673469,2.083918,3.2129478,1.4325493,7.6082635-.6447172,10.6027005"/><path class="cls-4" d="M23.7066647,34.9570715c-.8983953,1.2445665-1.5417995,2.6601175-2.4123022,3.9248511-3.2741684,4.756965-8.801217,6.8415121-14.3073917,5.2958021-1.2046041-.3381601-2.3747087-.8117448-3.4757357-1.4114081-.3936081-.2143747-3.118299-1.3118278-3.511235-.9828578,2.037209-1.7055723,3.2756712-4.723137,5.1721693-6.5624783,3.8921231-3.7747778,10.1192419-3.9866507,14.7826865-1.8212425"/><path class="cls-6" d="M52.3291662,64.1718445c-.6605774.9080435-1.1342922,1.9403728-1.7744311,2.8630781-2.4077152,3.4705149-6.4649935,4.9963614-10.5026043,3.8767477-.8833215-.2449416-1.7411709-.588612-2.5481921-1.0242432-.2885034-.1557345-2.2860872-.952117-2.5747493-.7119071,1.496592-1.2453877,2.4087771-3.4458657,3.8023006-4.7885602,2.859884-2.7555373,7.428505-2.9175932,10.8471251-1.3453573"/><path class="cls-6" d="M117.8919533,52.6754898c-.655382.66744-1.1715782,1.4607122-1.8118659,2.1427969-2.4082749,2.5654832-5.9424928,3.3205481-9.139765,1.89426-.6994778-.3120338-1.3659598-.7023998-1.9793352-1.1623581-.2192766-.1644313-1.7717144-1.070227-2.0391225-.9078303,1.3863993-.8419593,2.4061632-2.5450035,3.7192771-3.4801046,2.6948581-1.9190519,6.4858509-1.4847392,9.1172814.2382147"/><path class="cls-4" d="M126.4012333,51.3763007c.4752291,1.0117264,1.1455635,1.9160407,1.6430559,2.9165196,1.8711876,3.7630398,1.2873033,8.0767457-1.5745772,11.1321315-.6261031.6684369-1.3256175,1.2679754-2.0807983,1.7793044-.2699709.1827959-1.8954963,1.5807014-1.8232145,1.9493595-.3747506-1.9113384-1.8493782-3.7524196-2.356604-5.6179996-1.0409357-3.8286557.96191-7.9561207,3.9247765-10.2502789"/><path class="cls-6" d="M160.2058119,33.1878051c.1728187-1.0195971.1419914-2.0648089.2921023-3.0880874.564603-3.8487948,3.2710439-6.7731933,7.0355027-7.5098767.8235631-.1611667,1.6663323-.2305221,2.5047738-.2032233.2997359.0097591,2.2606259-.1549441,2.3997258-.4714745-.7211752,1.641078-.5754819,3.8289223-1.1726562,5.5078196-1.225575,3.4455212-4.9049349,5.4563954-8.3457505,5.565799"/><path class="cls-6" d="M120.2565711,40.9300007c-.5633186-.4141629-1.2034502-.7099727-1.775832-1.1111871-2.1528647-1.5090631-3.1025267-4.0655677-2.4130275-6.6179552.150844-.5583943.3628875-1.1010181.6319635-1.6118435.0961924-.1826158.5875476-1.4461548.4384107-1.6276288.7732124.9408665,2.137593,1.5098108,2.9709895,2.3853067,1.7103334,1.7967524,1.8155181,4.6803371.8449252,6.843386"/><path class="cls-10" d="M174.7808786,50.5072155c-4.2918378-1.1541187-8.5473958-2.1286132-12.7846957-2.955175-.0137877-.176827-.0905584-.3655245-.1734691-.522418-5.0736351-9.6057807-4.6198553-20.4169241-4.3501421-31.2597281-.6033805,3.8766241-1.4551205,7.8207141-1.5223323,11.7947473-.0890105,5.2640587.6209897,10.5924139,1.9648627,15.6232293.3404578,1.2745233.6636817,2.5580488,1.0617459,3.8086955-17.4314597-3.1223028-34.624349-3.8526649-52.8245238-4.2913558-3.4341674-.0827889-6.8762427-.1110479-10.3226244-.1112222-.0359169-.0359886-.0720452-.0727319-.1077117-.1045907-8.0640015-7.209352-11.3632208-17.5014608-14.845854-27.7582077.7700504,3.8462113,1.330594,7.8434537,2.6366544,11.5914807,1.7300919,4.9647265,4.2311151,9.7073542,7.2236397,13.9471749.5498922.7790513,1.0937495,1.564972,1.656263,2.3329359-15.0799732.0754052-30.2277468.5785194-45.187937-.3783505-10.9219757-.6633287-20.3642185-6.8314462-30.097803-11.5331073,5.1902291,2.507057,9.3511896,6.589658,14.3005043,9.4826356,9.09528,5.3160298,19.9152178,6.3854377,30.3622545,6.4519297-.6488745,1.0583304-1.2421081,2.160365-1.8501958,3.2492002-2.5334445,4.5363122-4.5257166,9.5200241-5.7281332,14.642092-.9077623,3.8668079-1.0481466,7.901658-1.4125873,11.8087395,2.3930799-10.5720037,4.600049-21.1595426,11.8668134-29.1914547.131332-.1450959.2699348-.3292985.3146352-.5157744,1.0462253-.0105937,2.0869651-.0274736,3.1190319-.0484839,13.6078432-.2769747,27.1939531-.5323806,40.8151091-.5121404,6.9181377.0102679,13.8212605.1343923,20.7341965.5157753-.1498074.1007903-.2994937.2019223-.4495395.3020987-4.2964187,2.8684315-8.312447,6.3849087-11.6876984,10.3890865-2.5480831,3.022906-4.4887228,6.5495412-6.5713571,9.8590513,6.7525751-8.1428954,13.3609471-16.3703187,23.1183728-20.2664646,7.4153946.5329656,14.8478901,1.392189,22.3285052,2.7631822,16.2821195,2.9840853,28.5526835,6.9002084,44.361634,12.5152816,11.5463845,4.1011169,26.9009315,9.2225052,37.5641615,14.9840791,1.5343037-2.6200987.1540716-2.1840858,1.7073718-4.7926347-7.3213335-2.674838-14.6429074-5.3646009-21.9885929-7.983998-7.1305393-2.5426782-14.2837986-5.019052-21.4816126-7.3511079-7.1978157-2.3320564-14.440186-4.5197947-21.7489458-6.485201Z"/><g class="cls-9"><polygon points="204.8100546 61.2967599 204.088374 61.0359109 203.339735 61.2240764 203.2945617 61.0407073 203.7819967 60.9182152 203.2778038 60.7435164 203.3382778 60.5649437 204.0038561 60.7953542 204.583095 57.4194436 204.7667028 57.4519113 204.1809065 60.8687756 204.8727144 61.1189251 204.8100546 61.2967599"/><polygon points="205.7816459 61.2294262 205.6956708 61.061553 206.1419398 60.8280064 205.6118816 60.7765376 205.629368 60.5883721 206.3299192 60.6564438 206.1914848 58.4038074 206.378007 58.392001 206.5182629 60.6861444 207.2486868 60.7673138 207.228286 60.9551104 206.4668965 60.8704359 205.7816459 61.2294262"/><path class="cls-8" d="M198.8573946,47.1944529c.0889922-1.4832221.4277334-2.9474869.9909192-4.3742193.439661-1.113804,1.0890237-2.0807411,2.0677121-2.7747699,1.7014166-1.2065457,4.381846-1.081473,6.2642713-.3976612,1.9310529.7014763,2.7589947,2.6381029,3.6408279,4.3604846.7731791,1.5101604,1.44704,3.0905392,2.2995592,4.5574233.7535798,1.2966444,2.1430105,1.9491185,3.3922212,2.6511995,2.2933765,1.2889227,4.5752736,2.4183752,7.0850997,3.1944783,1.4607899.4539992-1.5814747,2.013381-2.1458057,2.2874243-2.8342002,1.3765142-5.8761597,2.3169228-9.0092244,2.6274315-1.8305391.1814193-3.6710247.0536861-5.4748749-.2961845-1.8941444-.3673838-3.8240649-1.0234397-5.4130277-2.2018208-2.1023632-1.5591209-2.8973882-3.6009773-3.4307825-6.1028588-.2521453-1.1826854-.336989-2.3626865-.2668954-3.5309271Z"/><polygon class="cls-1" points="200.1202069 43.8797669 197.9057311 44.5530999 199.7662929 45.9432974 200.1202069 43.8797669"/><path class="cls-7" d="M204.1082215,49.3270076c.2733713-.7420761.7152284-1.3958431,1.2923847-1.7231549,1.6554012-.9387962,3.7165756.0730232,4.8834783,1.3282096.597887.643121,1.0148393,1.4247188,1.5268674,2.1338718.3379279.4680262.7432127.8821241,1.2365162,1.1812161.589102.357175,1.2613146.5190936,1.7919261.9780872.3276674.2834413,1.110776,1.0145582.6420954,1.4849668-1.1878466,1.1922104-2.5595328.8634355-4.1573396.8720433-1.5201271.00819-3.2020599-.2401283-4.6407616-.7487842-1.2734779-.4502407-2.3667656-1.5207646-2.7676718-2.8440358-.2225857-.7347053-.1386924-1.7633728.1925049-2.6624198Z"/><ellipse cx="202.3936685" cy="42.8625121" rx=".6893425" ry=".6981429"/></g></g></svg>